<?xml version="1.0" encoding="UTF-8" standalone="no"?>
<!DOCTYPE svg PUBLIC "-//W3C//DTD SVG 1.1//EN"
 "http://www.w3.org/Graphics/SVG/1.1/DTD/svg11.dtd">
<!-- Generated by graphviz version 14.0.2 (20251019.1705)
 -->
<!-- Title: MII_KDS_Status Pages: 1 -->
<svg width="1825pt" height="560pt"
 viewBox="0.00 0.00 1825.00 560.00" xmlns="http://www.w3.org/2000/svg" xmlns:xlink="http://www.w3.org/1999/xlink">
<g id="graph0" class="graph" transform="scale(1 1) rotate(0) translate(4 555.93)">
<title>MII_KDS_Status</title>
<polygon fill="white" stroke="none" points="-4,4 -4,-555.93 1821.22,-555.93 1821.22,4 -4,4"/>
<text xml:space="preserve" text-anchor="start" x="760.11" y="-534.68" font-family="Helvetica,sans-Serif" font-weight="bold" font-size="15.00">MII KDS — Abhängigkeiten und Reifegrad</text>
<text xml:space="preserve" text-anchor="start" x="734.99" y="-525.38" font-family="Helvetica,sans-Serif" font-size="9.00">Pfeil = „hängt ab von&quot; · Nur MII&#45;interne Deps · aus den publizierten Paketen abgeleitet</text>
<g id="clust1" class="cluster">
<title>cluster_legend</title>
<path fill="white" stroke="#b3b3b3" d="M1128.63,-356.84C1128.63,-356.84 1344.63,-356.84 1344.63,-356.84 1350.63,-356.84 1356.63,-362.84 1356.63,-368.84 1356.63,-368.84 1356.63,-499.93 1356.63,-499.93 1356.63,-505.93 1350.63,-511.93 1344.63,-511.93 1344.63,-511.93 1128.63,-511.93 1128.63,-511.93 1122.63,-511.93 1116.63,-505.93 1116.63,-499.93 1116.63,-499.93 1116.63,-368.84 1116.63,-368.84 1116.63,-362.84 1122.63,-356.84 1128.63,-356.84"/>
<text xml:space="preserve" text-anchor="start" x="1218.26" y="-500.38" font-family="Helvetica,sans-Serif" font-weight="bold" font-size="9.00">Legende</text>
</g>
<!-- base -->
<g id="node1" class="node">
<title>base</title>
<path fill="#d4edda" stroke="#2a6249" d="M986.63,-310.84C986.63,-310.84 956.63,-310.84 956.63,-310.84 950.63,-310.84 944.63,-304.84 944.63,-298.84 944.63,-298.84 944.63,-286.84 944.63,-286.84 944.63,-280.84 950.63,-274.84 956.63,-274.84 956.63,-274.84 986.63,-274.84 986.63,-274.84 992.63,-274.84 998.63,-280.84 998.63,-286.84 998.63,-286.84 998.63,-298.84 998.63,-298.84 998.63,-304.84 992.63,-310.84 986.63,-310.84"/>
<text xml:space="preserve" text-anchor="start" x="960.76" y="-293.34" font-family="Helvetica,sans-Serif" font-weight="bold" font-size="10.00">base</text>
<text xml:space="preserve" text-anchor="start" x="962.26" y="-285.24" font-family="Helvetica,sans-Serif" font-size="8.00">ballot</text>
</g>
<!-- bildgebung -->
<g id="node2" class="node">
<title>bildgebung</title>
<path fill="#d4edda" stroke="#2a6249" d="M725.1,-218.42C725.1,-218.42 664.17,-218.42 664.17,-218.42 658.17,-218.42 652.17,-212.42 652.17,-206.42 652.17,-206.42 652.17,-194.42 652.17,-194.42 652.17,-188.42 658.17,-182.42 664.17,-182.42 664.17,-182.42 725.1,-182.42 725.1,-182.42 731.1,-182.42 737.1,-188.42 737.1,-194.42 737.1,-194.42 737.1,-206.42 737.1,-206.42 737.1,-212.42 731.1,-218.42 725.1,-218.42"/>
<text xml:space="preserve" text-anchor="start" x="668.01" y="-200.92" font-family="Helvetica,sans-Serif" font-weight="bold" font-size="10.00">bildgebung</text>
<text xml:space="preserve" text-anchor="start" x="681.88" y="-192.82" font-family="Helvetica,sans-Serif" font-size="8.00">ballot.1</text>
</g>
<!-- base&#45;&gt;bildgebung -->
<g id="edge2" class="edge">
<title>base&#45;&gt;bildgebung</title>
<path fill="none" stroke="#8c8c8c" d="M936.15,-280.58C892.61,-266.73 816.59,-242.38 751.63,-220.84 747.07,-219.33 742.3,-217.73 737.56,-216.13"/>
<polygon fill="#8c8c8c" stroke="#8c8c8c" points="935.29,-282.88 942.71,-282.67 936.78,-278.21 935.29,-282.88"/>
</g>
<!-- dokument -->
<g id="node5" class="node">
<title>dokument</title>
<path fill="#d4edda" stroke="#2a6249" d="M1233.72,-218.42C1233.72,-218.42 1179.54,-218.42 1179.54,-218.42 1173.54,-218.42 1167.54,-212.42 1167.54,-206.42 1167.54,-206.42 1167.54,-194.42 1167.54,-194.42 1167.54,-188.42 1173.54,-182.42 1179.54,-182.42 1179.54,-182.42 1233.72,-182.42 1233.72,-182.42 1239.72,-182.42 1245.72,-188.42 1245.72,-194.42 1245.72,-194.42 1245.72,-206.42 1245.72,-206.42 1245.72,-212.42 1239.72,-218.42 1233.72,-218.42"/>
<text xml:space="preserve" text-anchor="start" x="1183.38" y="-200.92" font-family="Helvetica,sans-Serif" font-weight="bold" font-size="10.00">dokument</text>
<text xml:space="preserve" text-anchor="start" x="1193.88" y="-192.82" font-family="Helvetica,sans-Serif" font-size="8.00">ballot.2</text>
</g>
<!-- base&#45;&gt;dokument -->
<g id="edge6" class="edge">
<title>base&#45;&gt;dokument</title>
<path fill="none" stroke="#8c8c8c" d="M1006.99,-278.24C1050.04,-261.67 1122.51,-233.79 1167.29,-216.56"/>
<polygon fill="#8c8c8c" stroke="#8c8c8c" points="1006.12,-275.95 1000.46,-280.75 1007.88,-280.52 1006.12,-275.95"/>
</g>
<!-- kardiologie -->
<g id="node6" class="node">
<title>kardiologie</title>
<path fill="#d4edda" stroke="#2a6249" d="M1346.72,-218.42C1346.72,-218.42 1286.54,-218.42 1286.54,-218.42 1280.54,-218.42 1274.54,-212.42 1274.54,-206.42 1274.54,-206.42 1274.54,-194.42 1274.54,-194.42 1274.54,-188.42 1280.54,-182.42 1286.54,-182.42 1286.54,-182.42 1346.72,-182.42 1346.72,-182.42 1352.72,-182.42 1358.72,-188.42 1358.72,-194.42 1358.72,-194.42 1358.72,-206.42 1358.72,-206.42 1358.72,-212.42 1352.72,-218.42 1346.72,-218.42"/>
<text xml:space="preserve" text-anchor="start" x="1290.38" y="-200.92" font-family="Helvetica,sans-Serif" font-weight="bold" font-size="10.00">kardiologie</text>
<text xml:space="preserve" text-anchor="start" x="1307.26" y="-192.82" font-family="Helvetica,sans-Serif" font-size="8.00">ballot</text>
</g>
<!-- base&#45;&gt;kardiologie -->
<g id="edge9" class="edge">
<title>base&#45;&gt;kardiologie</title>
<path fill="none" stroke="#8c8c8c" d="M1006.95,-284.28C1061.69,-272.3 1170.15,-247.58 1260.63,-220.84 1265.07,-219.53 1269.68,-218.08 1274.27,-216.58"/>
<polygon fill="#8c8c8c" stroke="#8c8c8c" points="1006.75,-281.81 1000.43,-285.7 1007.79,-286.6 1006.75,-281.81"/>
</g>
<!-- lungenfunktion -->
<g id="node8" class="node">
<title>lungenfunktion</title>
<path fill="#d4edda" stroke="#2a6249" d="M856.72,-218.42C856.72,-218.42 778.54,-218.42 778.54,-218.42 772.54,-218.42 766.54,-212.42 766.54,-206.42 766.54,-206.42 766.54,-194.42 766.54,-194.42 766.54,-188.42 772.54,-182.42 778.54,-182.42 778.54,-182.42 856.72,-182.42 856.72,-182.42 862.72,-182.42 868.72,-188.42 868.72,-194.42 868.72,-194.42 868.72,-206.42 868.72,-206.42 868.72,-212.42 862.72,-218.42 856.72,-218.42"/>
<text xml:space="preserve" text-anchor="start" x="782.38" y="-200.92" font-family="Helvetica,sans-Serif" font-weight="bold" font-size="10.00">lungenfunktion</text>
<text xml:space="preserve" text-anchor="start" x="804.88" y="-192.82" font-family="Helvetica,sans-Serif" font-size="8.00">ballot.1</text>
</g>
<!-- base&#45;&gt;lungenfunktion -->
<g id="edge12" class="edge">
<title>base&#45;&gt;lungenfunktion</title>
<path fill="none" stroke="#8c8c8c" d="M937.14,-271.59C910.18,-255.76 873.11,-233.99 847.43,-218.92"/>
<polygon fill="#8c8c8c" stroke="#8c8c8c" points="935.87,-273.68 943.15,-275.12 938.35,-269.46 935.87,-273.68"/>
</g>
<!-- molgen -->
<g id="node12" class="node">
<title>molgen</title>
<path fill="#d4edda" stroke="#2a6249" d="M407.1,-218.42C407.1,-218.42 364.17,-218.42 364.17,-218.42 358.17,-218.42 352.17,-212.42 352.17,-206.42 352.17,-206.42 352.17,-194.42 352.17,-194.42 352.17,-188.42 358.17,-182.42 364.17,-182.42 364.17,-182.42 407.1,-182.42 407.1,-182.42 413.1,-182.42 419.1,-188.42 419.1,-194.42 419.1,-194.42 419.1,-206.42 419.1,-206.42 419.1,-212.42 413.1,-218.42 407.1,-218.42"/>
<text xml:space="preserve" text-anchor="start" x="368.01" y="-200.92" font-family="Helvetica,sans-Serif" font-weight="bold" font-size="10.00">molgen</text>
<text xml:space="preserve" text-anchor="start" x="372.88" y="-192.82" font-family="Helvetica,sans-Serif" font-size="8.00">ballot.1</text>
</g>
<!-- base&#45;&gt;molgen -->
<g id="edge18" class="edge">
<title>base&#45;&gt;molgen</title>
<path fill="none" stroke="#8c8c8c" d="M935.82,-290.24C848.56,-285.68 618.59,-269.61 433.63,-220.84 428.94,-219.6 424.09,-218.02 419.36,-216.3"/>
<polygon fill="#8c8c8c" stroke="#8c8c8c" points="935.67,-292.69 942.78,-290.6 935.92,-287.79 935.67,-292.69"/>
</g>
<!-- mtb -->
<g id="node13" class="node">
<title>mtb</title>
<path fill="#d4edda" stroke="#2a6249" d="M536.22,-36C536.22,-36 503.04,-36 503.04,-36 497.04,-36 491.04,-30 491.04,-24 491.04,-24 491.04,-12 491.04,-12 491.04,-6 497.04,0 503.04,0 503.04,0 536.22,0 536.22,0 542.22,0 548.22,-6 548.22,-12 548.22,-12 548.22,-24 548.22,-24 548.22,-30 542.22,-36 536.22,-36"/>
<text xml:space="preserve" text-anchor="start" x="510.63" y="-18.5" font-family="Helvetica,sans-Serif" font-weight="bold" font-size="10.00">mtb</text>
<text xml:space="preserve" text-anchor="start" x="506.88" y="-10.4" font-family="Helvetica,sans-Serif" font-size="8.00">ballot.1</text>
</g>
<!-- base&#45;&gt;mtb -->
<g id="edge21" class="edge">
<title>base&#45;&gt;mtb</title>
<path fill="none" stroke="#8c8c8c" d="M967.85,-266.06C962.91,-241.04 951.96,-203.51 928.63,-180 818.32,-68.81 621.99,-32.42 548.48,-22.36"/>
<polygon fill="#8c8c8c" stroke="#8c8c8c" points="965.42,-266.4 969.08,-272.85 970.24,-265.53 965.42,-266.4"/>
</g>
<!-- onkologie -->
<g id="node14" class="node">
<title>onkologie</title>
<path fill="#d4edda" stroke="#2a6249" d="M335.72,-126C335.72,-126 281.54,-126 281.54,-126 275.54,-126 269.54,-120 269.54,-114 269.54,-114 269.54,-102 269.54,-102 269.54,-96 275.54,-90 281.54,-90 281.54,-90 335.72,-90 335.72,-90 341.72,-90 347.72,-96 347.72,-102 347.72,-102 347.72,-114 347.72,-114 347.72,-120 341.72,-126 335.72,-126"/>
<text xml:space="preserve" text-anchor="start" x="285.38" y="-108.5" font-family="Helvetica,sans-Serif" font-weight="bold" font-size="10.00">onkologie</text>
<text xml:space="preserve" text-anchor="start" x="295.88" y="-100.4" font-family="Helvetica,sans-Serif" font-size="8.00">ballot.1</text>
</g>
<!-- base&#45;&gt;onkologie -->
<g id="edge29" class="edge">
<title>base&#45;&gt;onkologie</title>
<path fill="none" stroke="#8c8c8c" d="M959.81,-267.39C945.64,-241.02 919.28,-200.1 883.63,-180 791.42,-128 462.09,-113.51 347.93,-110"/>
<polygon fill="#8c8c8c" stroke="#8c8c8c" points="957.53,-268.33 962.94,-273.4 961.88,-266.06 957.53,-268.33"/>
</g>
<!-- patho -->
<g id="node15" class="node">
<title>patho</title>
<path fill="#d4edda" stroke="#2a6249" d="M493.6,-218.42C493.6,-218.42 459.67,-218.42 459.67,-218.42 453.67,-218.42 447.67,-212.42 447.67,-206.42 447.67,-206.42 447.67,-194.42 447.67,-194.42 447.67,-188.42 453.67,-182.42 459.67,-182.42 459.67,-182.42 493.6,-182.42 493.6,-182.42 499.6,-182.42 505.6,-188.42 505.6,-194.42 505.6,-194.42 505.6,-206.42 505.6,-206.42 505.6,-212.42 499.6,-218.42 493.6,-218.42"/>
<text xml:space="preserve" text-anchor="start" x="463.51" y="-200.92" font-family="Helvetica,sans-Serif" font-weight="bold" font-size="10.00">patho</text>
<text xml:space="preserve" text-anchor="start" x="467.26" y="-192.82" font-family="Helvetica,sans-Serif" font-size="8.00">ballot</text>
</g>
<!-- base&#45;&gt;patho -->
<g id="edge35" class="edge">
<title>base&#45;&gt;patho</title>
<path fill="none" stroke="#8c8c8c" d="M936.04,-285.34C842.67,-268.28 591.98,-222.49 506.03,-206.79"/>
<polygon fill="#8c8c8c" stroke="#8c8c8c" points="935.5,-287.73 942.83,-286.58 936.38,-282.91 935.5,-287.73"/>
</g>
<!-- seltene -->
<g id="node17" class="node">
<title>seltene</title>
<path fill="#d4edda" stroke="#2a6249" d="M1143.97,-126C1143.97,-126 1103.29,-126 1103.29,-126 1097.29,-126 1091.29,-120 1091.29,-114 1091.29,-114 1091.29,-102 1091.29,-102 1091.29,-96 1097.29,-90 1103.29,-90 1103.29,-90 1143.97,-90 1143.97,-90 1149.97,-90 1155.97,-96 1155.97,-102 1155.97,-102 1155.97,-114 1155.97,-114 1155.97,-120 1149.97,-126 1143.97,-126"/>
<text xml:space="preserve" text-anchor="start" x="1107.13" y="-108.5" font-family="Helvetica,sans-Serif" font-weight="bold" font-size="10.00">seltene</text>
<text xml:space="preserve" text-anchor="start" x="1114.26" y="-100.4" font-family="Helvetica,sans-Serif" font-size="8.00">ballot</text>
</g>
<!-- base&#45;&gt;seltene -->
<g id="edge39" class="edge">
<title>base&#45;&gt;seltene</title>
<path fill="none" stroke="#8c8c8c" d="M1006.74,-279.95C1034.32,-268.85 1071.62,-249.63 1093.63,-220.84 1115.25,-192.58 1121.32,-149.93 1123,-126.3"/>
<polygon fill="#8c8c8c" stroke="#8c8c8c" points="1005.94,-277.64 1000.3,-282.46 1007.71,-282.21 1005.94,-277.64"/>
</g>
<!-- soziodemographie -->
<g id="node18" class="node">
<title>soziodemographie</title>
<path fill="#d4edda" stroke="#2a6249" d="M1493.97,-218.42C1493.97,-218.42 1399.29,-218.42 1399.29,-218.42 1393.29,-218.42 1387.29,-212.42 1387.29,-206.42 1387.29,-206.42 1387.29,-194.42 1387.29,-194.42 1387.29,-188.42 1393.29,-182.42 1399.29,-182.42 1399.29,-182.42 1493.97,-182.42 1493.97,-182.42 1499.97,-182.42 1505.97,-188.42 1505.97,-194.42 1505.97,-194.42 1505.97,-206.42 1505.97,-206.42 1505.97,-212.42 1499.97,-218.42 1493.97,-218.42"/>
<text xml:space="preserve" text-anchor="start" x="1403.13" y="-200.92" font-family="Helvetica,sans-Serif" font-weight="bold" font-size="10.00">soziodemographie</text>
<text xml:space="preserve" text-anchor="start" x="1437.26" y="-192.82" font-family="Helvetica,sans-Serif" font-size="8.00">ballot</text>
</g>
<!-- base&#45;&gt;soziodemographie -->
<g id="edge44" class="edge">
<title>base&#45;&gt;soziodemographie</title>
<path fill="none" stroke="#8c8c8c" d="M1007.21,-286.6C1077.56,-276.01 1239.3,-250.51 1373.63,-220.84 1377.99,-219.88 1382.47,-218.83 1386.98,-217.73"/>
<polygon fill="#8c8c8c" stroke="#8c8c8c" points="1007.14,-284.13 1000.59,-287.59 1007.87,-288.98 1007.14,-284.13"/>
</g>
<!-- icu -->
<g id="node21" class="node">
<title>icu</title>
<path fill="#fbe3e0" stroke="#a32e2e" d="M1067.6,-220.84C1067.6,-220.84 1027.67,-220.84 1027.67,-220.84 1021.67,-220.84 1015.67,-214.84 1015.67,-208.84 1015.67,-208.84 1015.67,-192 1015.67,-192 1015.67,-186 1021.67,-180 1027.67,-180 1027.67,-180 1067.6,-180 1067.6,-180 1073.6,-180 1079.6,-186 1079.6,-192 1079.6,-192 1079.6,-208.84 1079.6,-208.84 1079.6,-214.84 1073.6,-220.84 1067.6,-220.84"/>
<text xml:space="preserve" text-anchor="start" x="1040.51" y="-204.42" font-family="Helvetica,sans-Serif" font-weight="bold" font-size="10.00">icu</text>
<text xml:space="preserve" text-anchor="start" x="1031.51" y="-196.32" font-family="Helvetica,sans-Serif" font-size="8.00">ballot.rc2</text>
<text xml:space="preserve" text-anchor="start" x="1035.26" y="-189.27" font-family="Helvetica,sans-Serif" font-size="7.00">1× 2026</text>
</g>
<!-- base&#45;&gt;icu -->
<g id="edge8" class="edge">
<title>base&#45;&gt;icu</title>
<path fill="none" stroke="#c0392b" stroke-dasharray="5,2" d="M991.65,-268.02C1003.88,-253.48 1019.34,-235.09 1030.91,-221.32"/>
<polygon fill="#c0392b" stroke="#c0392b" points="989.89,-266.31 987.26,-273.25 993.64,-269.47 989.89,-266.31"/>
</g>
<!-- biobank -->
<g id="node3" class="node">
<title>biobank</title>
<path fill="#d4edda" stroke="#2a6249" d="M305.22,-310.84C305.22,-310.84 260.04,-310.84 260.04,-310.84 254.04,-310.84 248.04,-304.84 248.04,-298.84 248.04,-298.84 248.04,-286.84 248.04,-286.84 248.04,-280.84 254.04,-274.84 260.04,-274.84 260.04,-274.84 305.22,-274.84 305.22,-274.84 311.22,-274.84 317.22,-280.84 317.22,-286.84 317.22,-286.84 317.22,-298.84 317.22,-298.84 317.22,-304.84 311.22,-310.84 305.22,-310.84"/>
<text xml:space="preserve" text-anchor="start" x="263.88" y="-293.34" font-family="Helvetica,sans-Serif" font-weight="bold" font-size="10.00">biobank</text>
<text xml:space="preserve" text-anchor="start" x="273.26" y="-285.24" font-family="Helvetica,sans-Serif" font-size="8.00">ballot</text>
</g>
<!-- mikrobiologie -->
<g id="node11" class="node">
<title>mikrobiologie</title>
<path fill="#d4edda" stroke="#2a6249" d="M135.1,-218.42C135.1,-218.42 62.17,-218.42 62.17,-218.42 56.17,-218.42 50.17,-212.42 50.17,-206.42 50.17,-206.42 50.17,-194.42 50.17,-194.42 50.17,-188.42 56.17,-182.42 62.17,-182.42 62.17,-182.42 135.1,-182.42 135.1,-182.42 141.1,-182.42 147.1,-188.42 147.1,-194.42 147.1,-194.42 147.1,-206.42 147.1,-206.42 147.1,-212.42 141.1,-218.42 135.1,-218.42"/>
<text xml:space="preserve" text-anchor="start" x="66.01" y="-200.92" font-family="Helvetica,sans-Serif" font-weight="bold" font-size="10.00">mikrobiologie</text>
<text xml:space="preserve" text-anchor="start" x="87.01" y="-192.82" font-family="Helvetica,sans-Serif" font-size="8.00">ballot2</text>
</g>
<!-- biobank&#45;&gt;mikrobiologie -->
<g id="edge16" class="edge">
<title>biobank&#45;&gt;mikrobiologie</title>
<path fill="none" stroke="#8c8c8c" d="M240.1,-270.94C207.99,-255.16 164.44,-233.76 134.17,-218.88"/>
<polygon fill="#8c8c8c" stroke="#8c8c8c" points="238.87,-273.06 246.23,-273.95 241.03,-268.67 238.87,-273.06"/>
</g>
<!-- biobank&#45;&gt;molgen -->
<g id="edge19" class="edge">
<title>biobank&#45;&gt;molgen</title>
<path fill="none" stroke="#8c8c8c" d="M308.77,-268.9C326.51,-253.32 349.61,-233.05 365.84,-218.8"/>
<polygon fill="#8c8c8c" stroke="#8c8c8c" points="307.27,-266.95 303.63,-273.41 310.51,-270.63 307.27,-266.95"/>
</g>
<!-- biobank&#45;&gt;mtb -->
<g id="edge22" class="edge">
<title>biobank&#45;&gt;mtb</title>
<path fill="none" stroke="#8c8c8c" d="M268.83,-267.16C247.85,-225.95 214.37,-142.47 254.63,-90 283.56,-52.31 428.34,-30.24 490.83,-22.34"/>
<polygon fill="#8c8c8c" stroke="#8c8c8c" points="266.6,-268.17 272.01,-273.24 270.94,-265.9 266.6,-268.17"/>
</g>
<!-- biobank&#45;&gt;onkologie -->
<g id="edge30" class="edge">
<title>biobank&#45;&gt;onkologie</title>
<path fill="none" stroke="#8c8c8c" d="M281.64,-266.21C281.2,-243.41 281.67,-209.26 286.63,-180 289.81,-161.3 296.59,-140.66 301.79,-126.48"/>
<polygon fill="#8c8c8c" stroke="#8c8c8c" points="279.19,-266.2 281.81,-273.13 284.08,-266.07 279.19,-266.2"/>
</g>
<!-- biobank&#45;&gt;patho -->
<g id="edge36" class="edge">
<title>biobank&#45;&gt;patho</title>
<path fill="none" stroke="#8c8c8c" d="M324.96,-272.11C361.99,-254.86 414.78,-230.25 447.32,-215.08"/>
<polygon fill="#8c8c8c" stroke="#8c8c8c" points="324,-269.86 318.69,-275.04 326.07,-274.3 324,-269.86"/>
</g>
<!-- consent -->
<g id="node4" class="node">
<title>consent</title>
<path fill="#d4edda" stroke="#2a6249" d="M1083.85,-443.51C1083.85,-443.51 1039.42,-443.51 1039.42,-443.51 1033.42,-443.51 1027.42,-437.51 1027.42,-431.51 1027.42,-431.51 1027.42,-419.51 1027.42,-419.51 1027.42,-413.51 1033.42,-407.51 1039.42,-407.51 1039.42,-407.51 1083.85,-407.51 1083.85,-407.51 1089.85,-407.51 1095.85,-413.51 1095.85,-419.51 1095.85,-419.51 1095.85,-431.51 1095.85,-431.51 1095.85,-437.51 1089.85,-443.51 1083.85,-443.51"/>
<text xml:space="preserve" text-anchor="start" x="1043.26" y="-426.01" font-family="Helvetica,sans-Serif" font-weight="bold" font-size="10.00">consent</text>
<text xml:space="preserve" text-anchor="start" x="1052.26" y="-417.91" font-family="Helvetica,sans-Serif" font-size="8.00">ballot</text>
</g>
<!-- laborbefund -->
<g id="node7" class="node">
<title>laborbefund</title>
<path fill="#d4edda" stroke="#2a6249" d="M130.6,-310.84C130.6,-310.84 66.67,-310.84 66.67,-310.84 60.67,-310.84 54.67,-304.84 54.67,-298.84 54.67,-298.84 54.67,-286.84 54.67,-286.84 54.67,-280.84 60.67,-274.84 66.67,-274.84 66.67,-274.84 130.6,-274.84 130.6,-274.84 136.6,-274.84 142.6,-280.84 142.6,-286.84 142.6,-286.84 142.6,-298.84 142.6,-298.84 142.6,-304.84 136.6,-310.84 130.6,-310.84"/>
<text xml:space="preserve" text-anchor="start" x="70.51" y="-293.34" font-family="Helvetica,sans-Serif" font-weight="bold" font-size="10.00">laborbefund</text>
<text xml:space="preserve" text-anchor="start" x="89.26" y="-285.24" font-family="Helvetica,sans-Serif" font-size="8.00">ballot</text>
</g>
<!-- laborbefund&#45;&gt;mikrobiologie -->
<g id="edge17" class="edge">
<title>laborbefund&#45;&gt;mikrobiologie</title>
<path fill="none" stroke="#8c8c8c" d="M98.63,-265.98C98.63,-250.86 98.63,-232.17 98.63,-218.8"/>
<polygon fill="#8c8c8c" stroke="#8c8c8c" points="96.18,-265.89 98.63,-272.89 101.08,-265.89 96.18,-265.89"/>
</g>
<!-- laborbefund&#45;&gt;onkologie -->
<g id="edge31" class="edge">
<title>laborbefund&#45;&gt;onkologie</title>
<path fill="none" stroke="#8c8c8c" d="M70.46,-269.23C44.65,-245.77 13.55,-208.56 35.63,-180 64.09,-143.19 200.69,-121.91 269.23,-113.39"/>
<polygon fill="#8c8c8c" stroke="#8c8c8c" points="68.54,-270.8 75.4,-273.6 71.78,-267.13 68.54,-270.8"/>
</g>
<!-- medikation -->
<g id="node9" class="node">
<title>medikation</title>
<path fill="#d4edda" stroke="#2a6249" d="M654.35,-310.84C654.35,-310.84 594.92,-310.84 594.92,-310.84 588.92,-310.84 582.92,-304.84 582.92,-298.84 582.92,-298.84 582.92,-286.84 582.92,-286.84 582.92,-280.84 588.92,-274.84 594.92,-274.84 594.92,-274.84 654.35,-274.84 654.35,-274.84 660.35,-274.84 666.35,-280.84 666.35,-286.84 666.35,-286.84 666.35,-298.84 666.35,-298.84 666.35,-304.84 660.35,-310.84 654.35,-310.84"/>
<text xml:space="preserve" text-anchor="start" x="598.76" y="-293.34" font-family="Helvetica,sans-Serif" font-weight="bold" font-size="10.00">medikation</text>
<text xml:space="preserve" text-anchor="start" x="615.26" y="-285.24" font-family="Helvetica,sans-Serif" font-size="8.00">ballot</text>
</g>
<!-- medikation&#45;&gt;bildgebung -->
<g id="edge3" class="edge">
<title>medikation&#45;&gt;bildgebung</title>
<path fill="none" stroke="#8c8c8c" d="M643.03,-268.08C655,-252.61 670.34,-232.8 681.18,-218.8"/>
<polygon fill="#8c8c8c" stroke="#8c8c8c" points="641.4,-266.17 639.06,-273.21 645.28,-269.17 641.4,-266.17"/>
</g>
<!-- medikation&#45;&gt;lungenfunktion -->
<g id="edge13" class="edge">
<title>medikation&#45;&gt;lungenfunktion</title>
<path fill="none" stroke="#8c8c8c" d="M669.28,-270.92C703.03,-255.11 748.8,-233.67 780.54,-218.8"/>
<polygon fill="#8c8c8c" stroke="#8c8c8c" points="668.52,-268.58 663.22,-273.76 670.59,-273.01 668.52,-268.58"/>
</g>
<!-- medikation&#45;&gt;mtb -->
<g id="edge23" class="edge">
<title>medikation&#45;&gt;mtb</title>
<path fill="none" stroke="#8c8c8c" d="M614.89,-266.51C593.78,-211.66 544.28,-83.04 526.31,-36.34"/>
<polygon fill="#8c8c8c" stroke="#8c8c8c" points="612.56,-267.29 617.36,-272.95 617.13,-265.53 612.56,-267.29"/>
</g>
<!-- medikation&#45;&gt;onkologie -->
<g id="edge32" class="edge">
<title>medikation&#45;&gt;onkologie</title>
<path fill="none" stroke="#8c8c8c" d="M574.28,-285.62C501.18,-275.59 370.76,-253.59 337.63,-220.84 312.1,-195.59 308.1,-150.97 308,-126.42"/>
<polygon fill="#8c8c8c" stroke="#8c8c8c" points="573.71,-288.02 580.97,-286.53 574.36,-283.16 573.71,-288.02"/>
</g>
<!-- medikation&#45;&gt;seltene -->
<g id="edge40" class="edge">
<title>medikation&#45;&gt;seltene</title>
<path fill="none" stroke="#8c8c8c" d="M619.56,-265.98C616.21,-240.57 615.83,-202.45 637.63,-180 700.6,-115.16 992.57,-109.02 1091.08,-108.82"/>
<polygon fill="#8c8c8c" stroke="#8c8c8c" points="617.14,-266.34 620.61,-272.89 621.98,-265.6 617.14,-266.34"/>
</g>
<!-- meta -->
<g id="node10" class="node">
<title>meta</title>
<path fill="#d4edda" stroke="#2a6249" d="M986.72,-443.51C986.72,-443.51 956.54,-443.51 956.54,-443.51 950.54,-443.51 944.54,-437.51 944.54,-431.51 944.54,-431.51 944.54,-419.51 944.54,-419.51 944.54,-413.51 950.54,-407.51 956.54,-407.51 956.54,-407.51 986.72,-407.51 986.72,-407.51 992.72,-407.51 998.72,-413.51 998.72,-419.51 998.72,-419.51 998.72,-431.51 998.72,-431.51 998.72,-437.51 992.72,-443.51 986.72,-443.51"/>
<text xml:space="preserve" text-anchor="start" x="960.38" y="-426.01" font-family="Helvetica,sans-Serif" font-weight="bold" font-size="10.00">meta</text>
<text xml:space="preserve" text-anchor="start" x="962.26" y="-417.91" font-family="Helvetica,sans-Serif" font-size="8.00">ballot</text>
</g>
<!-- meta&#45;&gt;base -->
<g id="edge1" class="edge">
<title>meta&#45;&gt;base</title>
<path fill="none" stroke="#8c8c8c" d="M971.63,-398.94C971.63,-373.06 971.63,-333.75 971.63,-311.26"/>
<polygon fill="#8c8c8c" stroke="#8c8c8c" points="969.18,-398.64 971.63,-405.64 974.08,-398.64 969.18,-398.64"/>
</g>
<!-- meta&#45;&gt;bildgebung -->
<g id="edge4" class="edge">
<title>meta&#45;&gt;bildgebung</title>
<path fill="none" stroke="#8c8c8c" d="M943.96,-402.22C888.67,-357.69 765.6,-258.58 715.98,-218.61"/>
<polygon fill="#8c8c8c" stroke="#8c8c8c" points="942.19,-403.94 949.18,-406.43 945.26,-400.13 942.19,-403.94"/>
</g>
<!-- meta&#45;&gt;biobank -->
<g id="edge5" class="edge">
<title>meta&#45;&gt;biobank</title>
<path fill="none" stroke="#8c8c8c" d="M936.12,-417.77C817.47,-395.27 435.68,-322.87 317.7,-300.49"/>
<polygon fill="#8c8c8c" stroke="#8c8c8c" points="935.38,-420.13 942.71,-419.02 936.29,-415.31 935.38,-420.13"/>
</g>
<!-- meta&#45;&gt;dokument -->
<g id="edge7" class="edge">
<title>meta&#45;&gt;dokument</title>
<path fill="none" stroke="#8c8c8c" d="M983.69,-400.13C991.02,-386.6 1001.17,-369.91 1012.63,-356.84 1064,-298.28 1139.38,-245.03 1179.37,-218.72"/>
<polygon fill="#8c8c8c" stroke="#8c8c8c" points="981.72,-398.61 980.62,-405.94 986.05,-400.89 981.72,-398.61"/>
</g>
<!-- meta&#45;&gt;kardiologie -->
<g id="edge10" class="edge">
<title>meta&#45;&gt;kardiologie</title>
<path fill="none" stroke="#8c8c8c" d="M982.44,-399.74C989.47,-385.8 999.74,-368.84 1012.63,-356.84 1015.37,-354.29 1203.07,-259 1282.13,-218.91"/>
<polygon fill="#8c8c8c" stroke="#8c8c8c" points="980.37,-398.39 979.53,-405.76 984.78,-400.52 980.37,-398.39"/>
</g>
<!-- meta&#45;&gt;laborbefund -->
<g id="edge11" class="edge">
<title>meta&#45;&gt;laborbefund</title>
<path fill="none" stroke="#8c8c8c" d="M935.84,-419.15C797.2,-398.4 295.68,-323.33 143.03,-300.49"/>
<polygon fill="#8c8c8c" stroke="#8c8c8c" points="935.28,-421.55 942.57,-420.16 936.01,-416.7 935.28,-421.55"/>
</g>
<!-- meta&#45;&gt;lungenfunktion -->
<g id="edge14" class="edge">
<title>meta&#45;&gt;lungenfunktion</title>
<path fill="none" stroke="#8c8c8c" d="M955.11,-400.57C923.85,-355.28 856.75,-258.09 829.5,-218.61"/>
<polygon fill="#8c8c8c" stroke="#8c8c8c" points="952.95,-401.76 958.95,-406.13 956.99,-398.98 952.95,-401.76"/>
</g>
<!-- meta&#45;&gt;medikation -->
<g id="edge15" class="edge">
<title>meta&#45;&gt;medikation</title>
<path fill="none" stroke="#8c8c8c" d="M936.25,-411.19C871.83,-386.93 735.69,-335.66 666.66,-309.67"/>
<polygon fill="#8c8c8c" stroke="#8c8c8c" points="935.28,-413.44 942.7,-413.61 937.01,-408.85 935.28,-413.44"/>
</g>
<!-- meta&#45;&gt;molgen -->
<g id="edge20" class="edge">
<title>meta&#45;&gt;molgen</title>
<path fill="none" stroke="#8c8c8c" d="M936.17,-420.84C857.61,-411.62 664.5,-382.84 520.63,-310.84 472.34,-286.67 425.58,-242.81 401.82,-218.6"/>
<polygon fill="#8c8c8c" stroke="#8c8c8c" points="935.56,-423.24 942.79,-421.6 936.11,-418.37 935.56,-423.24"/>
</g>
<!-- meta&#45;&gt;mtb -->
<g id="edge24" class="edge">
<title>meta&#45;&gt;mtb</title>
<path fill="none" stroke="#8c8c8c" d="M980.03,-399.48C986.47,-384.44 996.96,-366.41 1012.63,-356.84 1137.17,-280.81 1567.55,-417.02 1667.63,-310.84 1707.52,-268.52 1704.68,-225.63 1668.63,-180 1596.57,-88.77 719.96,-31.14 548.58,-20.71"/>
<polygon fill="#8c8c8c" stroke="#8c8c8c" points="977.91,-398.2 977.59,-405.61 982.46,-400.02 977.91,-398.2"/>
</g>
<!-- meta&#45;&gt;onkologie -->
<g id="edge33" class="edge">
<title>meta&#45;&gt;onkologie</title>
<path fill="none" stroke="#8c8c8c" d="M935.84,-422.57C773.09,-413.45 107.99,-372.6 40.63,-310.84 -2.68,-271.13 -14.59,-226.27 21.63,-180 51.97,-141.25 197.88,-120.72 269.21,-112.85"/>
<polygon fill="#8c8c8c" stroke="#8c8c8c" points="935.45,-425.01 942.57,-422.95 935.72,-420.11 935.45,-425.01"/>
</g>
<!-- meta&#45;&gt;patho -->
<g id="edge37" class="edge">
<title>meta&#45;&gt;patho</title>
<path fill="none" stroke="#8c8c8c" d="M936.36,-421.55C862.58,-413.93 688.89,-388.48 568.63,-310.84 531.31,-286.74 501.2,-242.85 486.47,-218.62"/>
<polygon fill="#8c8c8c" stroke="#8c8c8c" points="935.72,-423.95 942.92,-422.2 936.2,-419.07 935.72,-423.95"/>
</g>
<!-- pros -->
<g id="node16" class="node">
<title>pros</title>
<path fill="#d4edda" stroke="#2a6249" d="M1641.22,-310.84C1641.22,-310.84 1608.04,-310.84 1608.04,-310.84 1602.04,-310.84 1596.04,-304.84 1596.04,-298.84 1596.04,-298.84 1596.04,-286.84 1596.04,-286.84 1596.04,-280.84 1602.04,-274.84 1608.04,-274.84 1608.04,-274.84 1641.22,-274.84 1641.22,-274.84 1647.22,-274.84 1653.22,-280.84 1653.22,-286.84 1653.22,-286.84 1653.22,-298.84 1653.22,-298.84 1653.22,-304.84 1647.22,-310.84 1641.22,-310.84"/>
<text xml:space="preserve" text-anchor="start" x="1614.13" y="-293.34" font-family="Helvetica,sans-Serif" font-weight="bold" font-size="10.00">pros</text>
<text xml:space="preserve" text-anchor="start" x="1611.88" y="-285.24" font-family="Helvetica,sans-Serif" font-size="8.00">ballot.1</text>
</g>
<!-- meta&#45;&gt;pros -->
<g id="edge38" class="edge">
<title>meta&#45;&gt;pros</title>
<path fill="none" stroke="#8c8c8c" d="M980.07,-399.55C986.53,-384.53 997.02,-366.5 1012.63,-356.84 1119.01,-291.04 1451.09,-335.91 1573.63,-310.84 1580.86,-309.36 1588.48,-307.18 1595.57,-304.86"/>
<polygon fill="#8c8c8c" stroke="#8c8c8c" points="977.95,-398.25 977.62,-405.66 982.5,-400.08 977.95,-398.25"/>
</g>
<!-- meta&#45;&gt;seltene -->
<g id="edge41" class="edge">
<title>meta&#45;&gt;seltene</title>
<path fill="none" stroke="#8c8c8c" d="M980.83,-399.54C987.49,-384.92 997.91,-367.33 1012.63,-356.84 1091.87,-300.4 1132.48,-335.32 1226.63,-310.84 1358.89,-276.45 1439.37,-330.7 1520.63,-220.84 1588.61,-128.94 1517.61,-226.26 1163.63,-126 1161.17,-125.3 1158.65,-124.49 1156.14,-123.6"/>
<polygon fill="#8c8c8c" stroke="#8c8c8c" points="978.62,-398.5 978.12,-405.9 983.12,-400.42 978.62,-398.5"/>
</g>
<!-- meta&#45;&gt;soziodemographie -->
<g id="edge45" class="edge">
<title>meta&#45;&gt;soziodemographie</title>
<path fill="none" stroke="#8c8c8c" d="M981.47,-399.48C988.27,-385.16 998.62,-367.89 1012.63,-356.84 1065.39,-315.24 1093.18,-332.93 1156.63,-310.84 1244.55,-280.23 1346.08,-241.02 1402.67,-218.82"/>
<polygon fill="#8c8c8c" stroke="#8c8c8c" points="979.31,-398.31 978.68,-405.7 983.78,-400.32 979.31,-398.31"/>
</g>
<!-- studie -->
<g id="node19" class="node">
<title>studie</title>
<path fill="#d4edda" stroke="#2a6249" d="M1641.72,-218.42C1641.72,-218.42 1605.54,-218.42 1605.54,-218.42 1599.54,-218.42 1593.54,-212.42 1593.54,-206.42 1593.54,-206.42 1593.54,-194.42 1593.54,-194.42 1593.54,-188.42 1599.54,-182.42 1605.54,-182.42 1605.54,-182.42 1641.72,-182.42 1641.72,-182.42 1647.72,-182.42 1653.72,-188.42 1653.72,-194.42 1653.72,-194.42 1653.72,-206.42 1653.72,-206.42 1653.72,-212.42 1647.72,-218.42 1641.72,-218.42"/>
<text xml:space="preserve" text-anchor="start" x="1609.38" y="-200.92" font-family="Helvetica,sans-Serif" font-weight="bold" font-size="10.00">studie</text>
<text xml:space="preserve" text-anchor="start" x="1614.26" y="-192.82" font-family="Helvetica,sans-Serif" font-size="8.00">ballot</text>
</g>
<!-- meta&#45;&gt;studie -->
<g id="edge46" class="edge">
<title>meta&#45;&gt;studie</title>
<path fill="none" stroke="#8c8c8c" d="M980.1,-399.6C986.57,-384.6 997.06,-366.58 1012.63,-356.84 1202.61,-238.07 1311.87,-406.14 1514.63,-310.84 1558.56,-290.2 1594.86,-244.05 1612.36,-218.78"/>
<polygon fill="#8c8c8c" stroke="#8c8c8c" points="977.99,-398.29 977.65,-405.7 982.53,-400.12 977.99,-398.29"/>
</g>
<!-- symptom -->
<g id="node20" class="node">
<title>symptom</title>
<path fill="#d4edda" stroke="#2a6249" d="M1805.22,-310.84C1805.22,-310.84 1754.04,-310.84 1754.04,-310.84 1748.04,-310.84 1742.04,-304.84 1742.04,-298.84 1742.04,-298.84 1742.04,-286.84 1742.04,-286.84 1742.04,-280.84 1748.04,-274.84 1754.04,-274.84 1754.04,-274.84 1805.22,-274.84 1805.22,-274.84 1811.22,-274.84 1817.22,-280.84 1817.22,-286.84 1817.22,-286.84 1817.22,-298.84 1817.22,-298.84 1817.22,-304.84 1811.22,-310.84 1805.22,-310.84"/>
<text xml:space="preserve" text-anchor="start" x="1757.88" y="-293.34" font-family="Helvetica,sans-Serif" font-weight="bold" font-size="10.00">symptom</text>
<text xml:space="preserve" text-anchor="start" x="1770.26" y="-285.24" font-family="Helvetica,sans-Serif" font-size="8.00">ballot</text>
</g>
<!-- meta&#45;&gt;symptom -->
<g id="edge47" class="edge">
<title>meta&#45;&gt;symptom</title>
<path fill="none" stroke="#8c8c8c" d="M979.89,-399.74C986.32,-384.63 996.83,-366.43 1012.63,-356.84 1147.23,-275.15 1564.47,-337.56 1719.63,-310.84 1726.89,-309.59 1734.52,-307.81 1741.82,-305.86"/>
<polygon fill="#8c8c8c" stroke="#8c8c8c" points="977.76,-398.49 977.46,-405.9 982.31,-400.29 977.76,-398.49"/>
</g>
<!-- molgen&#45;&gt;mtb -->
<g id="edge25" class="edge">
<title>molgen&#45;&gt;mtb</title>
<path fill="none" stroke="#8c8c8c" d="M403.3,-175.64C430.68,-138.76 482.74,-68.67 506.82,-36.25"/>
<polygon fill="#8c8c8c" stroke="#8c8c8c" points="401.59,-173.83 399.38,-180.91 405.53,-176.75 401.59,-173.83"/>
</g>
<!-- molgen&#45;&gt;onkologie -->
<g id="edge34" class="edge">
<title>molgen&#45;&gt;onkologie</title>
<path fill="none" stroke="#8c8c8c" d="M365.4,-175.66C352.23,-160.19 335.35,-140.38 323.43,-126.38"/>
<polygon fill="#8c8c8c" stroke="#8c8c8c" points="363.4,-177.09 369.81,-180.83 367.13,-173.92 363.4,-177.09"/>
</g>
<!-- molgen&#45;&gt;seltene -->
<g id="edge42" class="edge">
<title>molgen&#45;&gt;seltene</title>
<path fill="none" stroke="#8c8c8c" d="M427.5,-181.7C429.56,-181.07 431.61,-180.5 433.63,-180 681.11,-118.52 991.27,-110.17 1091.1,-109.12"/>
<polygon fill="#8c8c8c" stroke="#8c8c8c" points="426.9,-179.31 421.03,-183.84 428.44,-183.97 426.9,-179.31"/>
</g>
<!-- onkologie&#45;&gt;mtb -->
<g id="edge26" class="edge">
<title>onkologie&#45;&gt;mtb</title>
<path fill="none" stroke="#8c8c8c" d="M355.6,-87.41C397.01,-70.14 456.01,-45.54 490.81,-31.02"/>
<polygon fill="#8c8c8c" stroke="#8c8c8c" points="354.74,-85.12 349.22,-90.07 356.63,-89.64 354.74,-85.12"/>
</g>
<!-- patho&#45;&gt;mtb -->
<g id="edge27" class="edge">
<title>patho&#45;&gt;mtb</title>
<path fill="none" stroke="#8c8c8c" d="M482.63,-174.25C491.5,-137.02 507.89,-68.27 515.52,-36.25"/>
<polygon fill="#8c8c8c" stroke="#8c8c8c" points="480.35,-173.27 481.11,-180.65 485.11,-174.41 480.35,-173.27"/>
</g>
<!-- studie&#45;&gt;mtb -->
<g id="edge28" class="edge">
<title>studie&#45;&gt;mtb</title>
<path fill="none" stroke="#8c8c8c" d="M1585.07,-184.35C1580.57,-182.79 1576.02,-181.3 1571.63,-180 1396.56,-127.93 1350.82,-119.95 1170.63,-90 932.03,-50.34 640.4,-27.56 548.67,-21"/>
<polygon fill="#8c8c8c" stroke="#8c8c8c" points="1584.23,-186.66 1591.65,-186.71 1585.88,-182.04 1584.23,-186.66"/>
</g>
<!-- studie&#45;&gt;seltene -->
<g id="edge43" class="edge">
<title>studie&#45;&gt;seltene</title>
<path fill="none" stroke="#8c8c8c" d="M1585.15,-184.08C1580.63,-182.57 1576.06,-181.16 1571.63,-180 1419.13,-139.87 1231.09,-119.08 1156.42,-111.93"/>
<polygon fill="#8c8c8c" stroke="#8c8c8c" points="1584.32,-186.38 1591.74,-186.38 1585.94,-181.76 1584.32,-186.38"/>
</g>
<!-- legende -->
<g id="node22" class="node">
<title>legende</title>
<polygon fill="#d4edda" stroke="none" points="1142.76,-461.01 1142.76,-476.26 1169.26,-476.26 1169.26,-461.01 1142.76,-461.01"/>
<text xml:space="preserve" text-anchor="start" x="1153.01" y="-464.76" font-family="Helvetica,sans-Serif" font-size="10.00">  </text>
<text xml:space="preserve" text-anchor="start" x="1173.26" y="-464.76" font-family="Helvetica,sans-Serif" font-size="10.00">finale Linie, Deps final</text>
<polygon fill="#fff3cd" stroke="none" points="1142.76,-443.76 1142.76,-459.01 1169.26,-459.01 1169.26,-443.76 1142.76,-443.76"/>
<text xml:space="preserve" text-anchor="start" x="1153.01" y="-447.51" font-family="Helvetica,sans-Serif" font-size="10.00">  </text>
<text xml:space="preserve" text-anchor="start" x="1173.26" y="-447.51" font-family="Helvetica,sans-Serif" font-size="10.00">Deps auf RCs</text>
<polygon fill="#fbe3e0" stroke="none" points="1142.76,-426.51 1142.76,-441.76 1169.26,-441.76 1169.26,-426.51 1142.76,-426.51"/>
<text xml:space="preserve" text-anchor="start" x="1153.01" y="-430.26" font-family="Helvetica,sans-Serif" font-size="10.00">  </text>
<text xml:space="preserve" text-anchor="start" x="1173.26" y="-430.26" font-family="Helvetica,sans-Serif" font-size="10.00">2027er Nummer, Deps noch 2026</text>
<polygon fill="#e2e3e5" stroke="none" points="1142.76,-409.26 1142.76,-424.51 1169.26,-424.51 1169.26,-409.26 1142.76,-409.26"/>
<text xml:space="preserve" text-anchor="start" x="1153.01" y="-413.01" font-family="Helvetica,sans-Serif" font-size="10.00">  </text>
<text xml:space="preserve" text-anchor="start" x="1173.26" y="-413.01" font-family="Helvetica,sans-Serif" font-size="10.00">noch ganz auf 2026</text>
<text xml:space="preserve" text-anchor="start" x="1144.76" y="-395.76" font-family="Helvetica,sans-Serif" font-size="10.00" fill="#c0392b">— —</text>
<text xml:space="preserve" text-anchor="start" x="1173.26" y="-395.76" font-family="Helvetica,sans-Serif" font-size="10.00">Kante zeigt auf eine 2026er Version</text>
<text xml:space="preserve" text-anchor="start" x="1148.51" y="-378.51" font-family="Helvetica,sans-Serif" font-size="10.00" fill="#8a5d0f">· · ·</text>
<text xml:space="preserve" text-anchor="start" x="1173.26" y="-378.51" font-family="Helvetica,sans-Serif" font-size="10.00">Kante zeigt auf eine RC</text>
</g>
</g>
</svg>
