<?xml version="1.0" encoding="UTF-8" standalone="no"?>
<!DOCTYPE svg PUBLIC "-//W3C//DTD SVG 1.1//EN"
 "http://www.w3.org/Graphics/SVG/1.1/DTD/svg11.dtd">
<!-- Generated by graphviz version 14.0.2 (20251019.1705)
 -->
<!-- Title: MII_KDS_2027_Ballot Pages: 1 -->
<svg width="3242pt" height="486pt"
 viewBox="0.00 0.00 3242.00 486.00" xmlns="http://www.w3.org/2000/svg" xmlns:xlink="http://www.w3.org/1999/xlink">
<g id="graph0" class="graph" transform="scale(1 1) rotate(0) translate(4 481.65)">
<title>MII_KDS_2027_Ballot</title>
<polygon fill="white" stroke="none" points="-4,4 -4,-481.65 3237.5,-481.65 3237.5,4 -4,4"/>
<text xml:space="preserve" text-anchor="start" x="1462.62" y="-460.4" font-family="Helvetica,sans-Serif" font-weight="bold" font-size="15.00">MII KDS 2027 Ballot — Abhängigkeitsgraph</text>
<text xml:space="preserve" text-anchor="start" x="1476.5" y="-450.15" font-family="Helvetica,sans-Serif" font-size="10.00">Pfeil = „hängt ab von&quot; · Nur MII&#45;interne Deps · Stand 2026&#45;09&#45;13</text>
<text xml:space="preserve" text-anchor="start" x="1469" y="-440.15" font-family="Helvetica,sans-Serif" font-size="10.00" fill="#c0392b">Rot gestrichelt = Modul deklariert noch die 2026er Version des Ziels</text>
<g id="clust1" class="cluster">
<title>cluster_nonfinal</title>
<polygon fill="#f8f9fa" stroke="#999999" stroke-dasharray="5,2" points="1605.5,-347.12 1605.5,-426.65 1800.5,-426.65 1800.5,-347.12 1605.5,-347.12"/>
<text xml:space="preserve" text-anchor="start" x="1613.75" y="-414.15" font-family="Helvetica,sans-Serif" font-weight="bold" font-size="10.00">Angekündigt, Package nicht publiziert</text>
</g>
<!-- meta -->
<g id="node1" class="node">
<title>meta</title>
<path fill="#fff3cd" stroke="black" d="M1575.62,-395.4C1575.62,-395.4 1465.38,-395.4 1465.38,-395.4 1459.38,-395.4 1453.38,-389.4 1453.38,-383.4 1453.38,-383.4 1453.38,-371.12 1453.38,-371.12 1453.38,-365.12 1459.38,-359.12 1465.38,-359.12 1465.38,-359.12 1575.62,-359.12 1575.62,-359.12 1581.62,-359.12 1587.62,-365.12 1587.62,-371.12 1587.62,-371.12 1587.62,-383.4 1587.62,-383.4 1587.62,-389.4 1581.62,-395.4 1575.62,-395.4"/>
<text xml:space="preserve" text-anchor="start" x="1471.38" y="-377.31" font-family="Helvetica,sans-Serif" font-size="11.00">Meta 2027.0.0&#45;ballot</text>
<text xml:space="preserve" text-anchor="start" x="1495.75" y="-369.16" font-family="Helvetica,sans-Serif" font-size="8.00">(finaler Ballot)</text>
</g>
<!-- base -->
<g id="node2" class="node">
<title>base</title>
<path fill="#fff3cd" stroke="black" d="M1675.88,-305.12C1675.88,-305.12 1513.12,-305.12 1513.12,-305.12 1507.12,-305.12 1501.12,-299.12 1501.12,-293.12 1501.12,-293.12 1501.12,-280.84 1501.12,-280.84 1501.12,-274.84 1507.12,-268.84 1513.12,-268.84 1513.12,-268.84 1675.88,-268.84 1675.88,-268.84 1681.88,-268.84 1687.88,-274.84 1687.88,-280.84 1687.88,-280.84 1687.88,-293.12 1687.88,-293.12 1687.88,-299.12 1681.88,-305.12 1675.88,-305.12"/>
<text xml:space="preserve" text-anchor="start" x="1545" y="-287.03" font-family="Helvetica,sans-Serif" font-size="11.00">Base 2027.0.0&#45;ballot</text>
<text xml:space="preserve" text-anchor="start" x="1519.12" y="-278.88" font-family="Helvetica,sans-Serif" font-size="8.00">(Person, Fall, Diagnose, Prozedur) · Ballot</text>
</g>
<!-- meta&#45;&gt;base -->
<g id="edge1" class="edge">
<title>meta&#45;&gt;base</title>
<path fill="none" stroke="#7f7f7f" d="M1540.57,-352.31C1553,-337.49 1568.67,-318.8 1579.91,-305.39"/>
<polygon fill="#7f7f7f" stroke="#7f7f7f" points="1538.71,-350.72 1536.09,-357.66 1542.47,-353.87 1538.71,-350.72"/>
</g>
<!-- labor -->
<g id="node3" class="node">
<title>labor</title>
<path fill="#fff3cd" stroke="black" d="M2587.5,-305.12C2587.5,-305.12 2455.5,-305.12 2455.5,-305.12 2449.5,-305.12 2443.5,-299.12 2443.5,-293.12 2443.5,-293.12 2443.5,-280.84 2443.5,-280.84 2443.5,-274.84 2449.5,-268.84 2455.5,-268.84 2455.5,-268.84 2587.5,-268.84 2587.5,-268.84 2593.5,-268.84 2599.5,-274.84 2599.5,-280.84 2599.5,-280.84 2599.5,-293.12 2599.5,-293.12 2599.5,-299.12 2593.5,-305.12 2587.5,-305.12"/>
<text xml:space="preserve" text-anchor="start" x="2461.5" y="-287.03" font-family="Helvetica,sans-Serif" font-size="11.00">Labor 2027.0.0&#45;ballot.rc4</text>
<text xml:space="preserve" text-anchor="start" x="2508.75" y="-278.88" font-family="Helvetica,sans-Serif" font-size="8.00">(Ballot)</text>
</g>
<!-- meta&#45;&gt;labor -->
<g id="edge2" class="edge">
<title>meta&#45;&gt;labor</title>
<path fill="none" stroke="#7f7f7f" d="M1567.11,-355.76C1576.67,-352.3 1586.78,-349.18 1596.5,-347.12 1953.51,-271.53 2053.65,-343.91 2416.5,-305.12 2425.13,-304.2 2434.13,-303.04 2443.08,-301.75"/>
<polygon fill="#7f7f7f" stroke="#7f7f7f" points="1566.34,-353.43 1560.65,-358.18 1568.06,-358.01 1566.34,-353.43"/>
</g>
<!-- medikation -->
<g id="node4" class="node">
<title>medikation</title>
<path fill="#fff3cd" stroke="black" d="M757.5,-305.12C757.5,-305.12 619.5,-305.12 619.5,-305.12 613.5,-305.12 607.5,-299.12 607.5,-293.12 607.5,-293.12 607.5,-280.84 607.5,-280.84 607.5,-274.84 613.5,-268.84 619.5,-268.84 619.5,-268.84 757.5,-268.84 757.5,-268.84 763.5,-268.84 769.5,-274.84 769.5,-280.84 769.5,-280.84 769.5,-293.12 769.5,-293.12 769.5,-299.12 763.5,-305.12 757.5,-305.12"/>
<text xml:space="preserve" text-anchor="start" x="625.5" y="-287.03" font-family="Helvetica,sans-Serif" font-size="11.00">Medikation 2027.0.0&#45;ballot</text>
<text xml:space="preserve" text-anchor="start" x="637.12" y="-278.88" font-family="Helvetica,sans-Serif" font-size="8.00">(Ballot) · vollständig kohärent</text>
</g>
<!-- meta&#45;&gt;medikation -->
<g id="edge3" class="edge">
<title>meta&#45;&gt;medikation</title>
<path fill="none" stroke="#7f7f7f" d="M1444.99,-368.98C1317.73,-356.6 1052.51,-330.34 828.5,-305.12 809.52,-302.98 789.11,-300.56 769.9,-298.22"/>
<polygon fill="#7f7f7f" stroke="#7f7f7f" points="1444.46,-371.39 1451.66,-369.63 1444.93,-366.51 1444.46,-371.39"/>
</g>
<!-- biobank -->
<g id="node5" class="node">
<title>biobank</title>
<path fill="#fff3cd" stroke="black" d="M1198.12,-305.12C1198.12,-305.12 1072.88,-305.12 1072.88,-305.12 1066.88,-305.12 1060.88,-299.12 1060.88,-293.12 1060.88,-293.12 1060.88,-280.84 1060.88,-280.84 1060.88,-274.84 1066.88,-268.84 1072.88,-268.84 1072.88,-268.84 1198.12,-268.84 1198.12,-268.84 1204.12,-268.84 1210.12,-274.84 1210.12,-280.84 1210.12,-280.84 1210.12,-293.12 1210.12,-293.12 1210.12,-299.12 1204.12,-305.12 1198.12,-305.12"/>
<text xml:space="preserve" text-anchor="start" x="1078.88" y="-287.03" font-family="Helvetica,sans-Serif" font-size="11.00">Biobank 2027.0.0&#45;ballot</text>
<text xml:space="preserve" text-anchor="start" x="1122.75" y="-278.88" font-family="Helvetica,sans-Serif" font-size="8.00">(Ballot)</text>
</g>
<!-- meta&#45;&gt;biobank -->
<g id="edge4" class="edge">
<title>meta&#45;&gt;biobank</title>
<path fill="none" stroke="#7f7f7f" d="M1444.89,-358.92C1377.08,-343.37 1278.13,-320.68 1210.51,-305.18"/>
<polygon fill="#7f7f7f" stroke="#7f7f7f" points="1444.15,-361.27 1451.52,-360.44 1445.25,-356.49 1444.15,-361.27"/>
</g>
<!-- studie -->
<g id="node6" class="node">
<title>studie</title>
<path fill="#fff3cd" stroke="black" d="M147,-305.12C147,-305.12 12,-305.12 12,-305.12 6,-305.12 0,-299.12 0,-293.12 0,-293.12 0,-280.84 0,-280.84 0,-274.84 6,-268.84 12,-268.84 12,-268.84 147,-268.84 147,-268.84 153,-268.84 159,-274.84 159,-280.84 159,-280.84 159,-293.12 159,-293.12 159,-299.12 153,-305.12 147,-305.12"/>
<text xml:space="preserve" text-anchor="start" x="18" y="-287.03" font-family="Helvetica,sans-Serif" font-size="11.00">Studie 2027.0.0&#45;ballot.rc1</text>
<text xml:space="preserve" text-anchor="start" x="66.75" y="-278.88" font-family="Helvetica,sans-Serif" font-size="8.00">(Ballot)</text>
</g>
<!-- meta&#45;&gt;studie -->
<g id="edge5" class="edge">
<title>meta&#45;&gt;studie</title>
<path fill="none" stroke="#c0392b" stroke-dasharray="5,2" d="M1444.71,-375.02C1240.8,-371.07 663.62,-355.91 186.5,-305.12 177.71,-304.18 168.54,-303.01 159.42,-301.73"/>
<polygon fill="#c0392b" stroke="#c0392b" points="1444.42,-377.46 1451.46,-375.15 1444.51,-372.56 1444.42,-377.46"/>
</g>
<!-- pros -->
<g id="node7" class="node">
<title>pros</title>
<path fill="#fff3cd" stroke="black" d="M2771.75,-305.12C2771.75,-305.12 2647.25,-305.12 2647.25,-305.12 2641.25,-305.12 2635.25,-299.12 2635.25,-293.12 2635.25,-293.12 2635.25,-280.84 2635.25,-280.84 2635.25,-274.84 2641.25,-268.84 2647.25,-268.84 2647.25,-268.84 2771.75,-268.84 2771.75,-268.84 2777.75,-268.84 2783.75,-274.84 2783.75,-280.84 2783.75,-280.84 2783.75,-293.12 2783.75,-293.12 2783.75,-299.12 2777.75,-305.12 2771.75,-305.12"/>
<text xml:space="preserve" text-anchor="start" x="2653.25" y="-287.03" font-family="Helvetica,sans-Serif" font-size="11.00">PROs 2027.0.0&#45;ballot.1</text>
<text xml:space="preserve" text-anchor="start" x="2696.75" y="-278.88" font-family="Helvetica,sans-Serif" font-size="8.00">(Ballot)</text>
</g>
<!-- meta&#45;&gt;pros -->
<g id="edge6" class="edge">
<title>meta&#45;&gt;pros</title>
<path fill="none" stroke="#c0392b" stroke-dasharray="5,2" d="M1567.09,-355.68C1576.65,-352.23 1586.77,-349.13 1596.5,-347.12 2041.28,-255.28 2166.22,-356.17 2617.5,-305.12 2623.15,-304.48 2628.98,-303.7 2634.82,-302.82"/>
<polygon fill="#c0392b" stroke="#c0392b" points="1566.32,-353.35 1560.63,-358.1 1568.05,-357.94 1566.32,-353.35"/>
</g>
<!-- molgen -->
<g id="node9" class="node">
<title>molgen</title>
<path fill="#fff3cd" stroke="black" d="M1067.38,-218.84C1067.38,-218.84 943.62,-218.84 943.62,-218.84 937.62,-218.84 931.62,-212.84 931.62,-206.84 931.62,-206.84 931.62,-194.56 931.62,-194.56 931.62,-188.56 937.62,-182.56 943.62,-182.56 943.62,-182.56 1067.38,-182.56 1067.38,-182.56 1073.38,-182.56 1079.38,-188.56 1079.38,-194.56 1079.38,-194.56 1079.38,-206.84 1079.38,-206.84 1079.38,-212.84 1073.38,-218.84 1067.38,-218.84"/>
<text xml:space="preserve" text-anchor="start" x="949.62" y="-200.75" font-family="Helvetica,sans-Serif" font-size="11.00">MolGen 2027.0.0&#45;ballot</text>
<text xml:space="preserve" text-anchor="start" x="954.12" y="-192.6" font-family="Helvetica,sans-Serif" font-size="8.00">(Ballot) · vollständig kohärent</text>
</g>
<!-- meta&#45;&gt;molgen -->
<g id="edge8" class="edge">
<title>meta&#45;&gt;molgen</title>
<path fill="none" stroke="#7f7f7f" d="M1444.55,-374.25C1325.54,-369.6 1102.5,-354.38 1042.5,-305.12 1016.41,-283.7 1008.71,-242.46 1006.44,-219.05"/>
<polygon fill="#7f7f7f" stroke="#7f7f7f" points="1444.33,-376.69 1451.42,-374.51 1444.52,-371.8 1444.33,-376.69"/>
</g>
<!-- bildgebung -->
<g id="node10" class="node">
<title>bildgebung</title>
<path fill="#fff3cd" stroke="black" d="M809.62,-218.84C809.62,-218.84 651.38,-218.84 651.38,-218.84 645.38,-218.84 639.38,-212.84 639.38,-206.84 639.38,-206.84 639.38,-194.56 639.38,-194.56 639.38,-188.56 645.38,-182.56 651.38,-182.56 651.38,-182.56 809.62,-182.56 809.62,-182.56 815.62,-182.56 821.62,-188.56 821.62,-194.56 821.62,-194.56 821.62,-206.84 821.62,-206.84 821.62,-212.84 815.62,-218.84 809.62,-218.84"/>
<text xml:space="preserve" text-anchor="start" x="657.38" y="-200.75" font-family="Helvetica,sans-Serif" font-size="11.00">Bildgebung 2027.0.0&#45;ballot.rc2</text>
<text xml:space="preserve" text-anchor="start" x="717.75" y="-192.6" font-family="Helvetica,sans-Serif" font-size="8.00">(Ballot)</text>
</g>
<!-- meta&#45;&gt;bildgebung -->
<g id="edge11" class="edge">
<title>meta&#45;&gt;bildgebung</title>
<path fill="none" stroke="#c0392b" stroke-dasharray="5,2" d="M1444.61,-370.91C1343.78,-362.64 1160.64,-343.5 1008.5,-305.12 920.62,-282.95 822.18,-242.38 769.23,-219.19"/>
<polygon fill="#c0392b" stroke="#c0392b" points="1444.24,-373.34 1451.41,-371.47 1444.63,-368.46 1444.24,-373.34"/>
</g>
<!-- dokument -->
<g id="node11" class="node">
<title>dokument</title>
<path fill="#fff3cd" stroke="black" d="M2173.38,-218.84C2173.38,-218.84 2019.62,-218.84 2019.62,-218.84 2013.62,-218.84 2007.62,-212.84 2007.62,-206.84 2007.62,-206.84 2007.62,-194.56 2007.62,-194.56 2007.62,-188.56 2013.62,-182.56 2019.62,-182.56 2019.62,-182.56 2173.38,-182.56 2173.38,-182.56 2179.38,-182.56 2185.38,-188.56 2185.38,-194.56 2185.38,-194.56 2185.38,-206.84 2185.38,-206.84 2185.38,-212.84 2179.38,-218.84 2173.38,-218.84"/>
<text xml:space="preserve" text-anchor="start" x="2025.62" y="-200.75" font-family="Helvetica,sans-Serif" font-size="11.00">Dokument 2027.0.0&#45;ballot.rc2</text>
<text xml:space="preserve" text-anchor="start" x="2083.75" y="-192.6" font-family="Helvetica,sans-Serif" font-size="8.00">(Ballot)</text>
</g>
<!-- meta&#45;&gt;dokument -->
<g id="edge14" class="edge">
<title>meta&#45;&gt;dokument</title>
<path fill="none" stroke="#7f7f7f" d="M1572.42,-355.7C1580.44,-352.71 1588.66,-349.76 1596.5,-347.12 1749.87,-295.51 1933.22,-244.98 2029.63,-219.25"/>
<polygon fill="#7f7f7f" stroke="#7f7f7f" points="1571.59,-353.39 1565.9,-358.15 1573.31,-357.98 1571.59,-353.39"/>
</g>
<!-- onko -->
<g id="node13" class="node">
<title>onko</title>
<path fill="#d4edda" stroke="black" d="M859.5,-132.56C859.5,-132.56 799.5,-132.56 799.5,-132.56 793.5,-132.56 787.5,-126.56 787.5,-120.56 787.5,-120.56 787.5,-103.28 787.5,-103.28 787.5,-97.28 793.5,-91.28 799.5,-91.28 799.5,-91.28 859.5,-91.28 859.5,-91.28 865.5,-91.28 871.5,-97.28 871.5,-103.28 871.5,-103.28 871.5,-120.56 871.5,-120.56 871.5,-126.56 865.5,-132.56 859.5,-132.56"/>
<text xml:space="preserve" text-anchor="middle" x="829.5" y="-113.47" font-family="Helvetica,sans-Serif" font-size="11.00">Onkologie</text>
<text xml:space="preserve" text-anchor="middle" x="829.5" y="-101.47" font-family="Helvetica,sans-Serif" font-size="11.00">2026.0.3</text>
</g>
<!-- meta&#45;&gt;onko -->
<g id="edge17" class="edge">
<title>meta&#45;&gt;onko</title>
<path fill="none" stroke="#c0392b" stroke-dasharray="5,2" d="M1444.8,-375.31C1231.8,-371.97 638.27,-357.99 569.5,-305.12 525.04,-270.94 504.78,-226.6 539.5,-182.56 569.87,-144.03 714.18,-124.38 787.11,-116.78"/>
<polygon fill="#c0392b" stroke="#c0392b" points="1444.58,-377.75 1451.62,-375.41 1444.66,-372.85 1444.58,-377.75"/>
</g>
<!-- patho -->
<g id="node14" class="node">
<title>patho</title>
<path fill="#fff3cd" stroke="black" d="M1584.12,-130.06C1584.12,-130.06 1428.88,-130.06 1428.88,-130.06 1422.88,-130.06 1416.88,-124.06 1416.88,-118.06 1416.88,-118.06 1416.88,-105.78 1416.88,-105.78 1416.88,-99.78 1422.88,-93.78 1428.88,-93.78 1428.88,-93.78 1584.12,-93.78 1584.12,-93.78 1590.12,-93.78 1596.12,-99.78 1596.12,-105.78 1596.12,-105.78 1596.12,-118.06 1596.12,-118.06 1596.12,-124.06 1590.12,-130.06 1584.12,-130.06"/>
<text xml:space="preserve" text-anchor="start" x="1434.88" y="-111.97" font-family="Helvetica,sans-Serif" font-size="11.00">Pathologie 2027.0.0&#45;ballot.rc2</text>
<text xml:space="preserve" text-anchor="start" x="1493.75" y="-103.82" font-family="Helvetica,sans-Serif" font-size="8.00">(Ballot)</text>
</g>
<!-- meta&#45;&gt;patho -->
<g id="edge23" class="edge">
<title>meta&#45;&gt;patho</title>
<path fill="none" stroke="#7f7f7f" d="M1570.13,-355.79C1578.83,-352.62 1587.86,-349.58 1596.5,-347.12 1865.3,-270.46 2391.07,-389.8 2203.5,-182.56 2183.38,-160.33 1780.47,-131.01 1596.6,-118.73"/>
<polygon fill="#7f7f7f" stroke="#7f7f7f" points="1569.38,-353.46 1563.68,-358.2 1571.09,-358.05 1569.38,-353.46"/>
</g>
<!-- seltene -->
<g id="node15" class="node">
<title>seltene</title>
<path fill="#d4edda" stroke="black" d="M993.62,-132.56C993.62,-132.56 919.38,-132.56 919.38,-132.56 913.38,-132.56 907.38,-126.56 907.38,-120.56 907.38,-120.56 907.38,-103.28 907.38,-103.28 907.38,-97.28 913.38,-91.28 919.38,-91.28 919.38,-91.28 993.62,-91.28 993.62,-91.28 999.62,-91.28 1005.62,-97.28 1005.62,-103.28 1005.62,-103.28 1005.62,-120.56 1005.62,-120.56 1005.62,-126.56 999.62,-132.56 993.62,-132.56"/>
<text xml:space="preserve" text-anchor="middle" x="956.5" y="-113.47" font-family="Helvetica,sans-Serif" font-size="11.00">Seltene Erkr.</text>
<text xml:space="preserve" text-anchor="middle" x="956.5" y="-101.47" font-family="Helvetica,sans-Serif" font-size="11.00">2026.0.1</text>
</g>
<!-- meta&#45;&gt;seltene -->
<g id="edge26" class="edge">
<title>meta&#45;&gt;seltene</title>
<path fill="none" stroke="#c0392b" stroke-dasharray="5,2" d="M1444.7,-376.23C1233,-375.38 647.15,-367.35 589.5,-305.12 568.63,-282.6 579.3,-208.52 605.5,-182.56 696.54,-92.35 764.7,-161.74 889.5,-132.56 895.17,-131.24 901.06,-129.72 906.9,-128.12"/>
<polygon fill="#c0392b" stroke="#c0392b" points="1444.46,-378.68 1451.47,-376.26 1444.48,-373.78 1444.46,-378.68"/>
</g>
<!-- mtb -->
<g id="node16" class="node">
<title>mtb</title>
<path fill="#d4edda" stroke="black" d="M1124.5,-41.28C1124.5,-41.28 1070.5,-41.28 1070.5,-41.28 1064.5,-41.28 1058.5,-35.28 1058.5,-29.28 1058.5,-29.28 1058.5,-12 1058.5,-12 1058.5,-6 1064.5,0 1070.5,0 1070.5,0 1124.5,0 1124.5,0 1130.5,0 1136.5,-6 1136.5,-12 1136.5,-12 1136.5,-29.28 1136.5,-29.28 1136.5,-35.28 1130.5,-41.28 1124.5,-41.28"/>
<text xml:space="preserve" text-anchor="middle" x="1097.5" y="-22.19" font-family="Helvetica,sans-Serif" font-size="11.00">MTB</text>
<text xml:space="preserve" text-anchor="middle" x="1097.5" y="-10.19" font-family="Helvetica,sans-Serif" font-size="11.00">2026.0.1</text>
</g>
<!-- meta&#45;&gt;mtb -->
<g id="edge32" class="edge">
<title>meta&#45;&gt;mtb</title>
<path fill="none" stroke="#c0392b" stroke-dasharray="5,2" d="M1567.44,-355.72C1576.91,-352.31 1586.9,-349.21 1596.5,-347.12 1670.04,-331.13 2218.18,-357.21 2272.5,-305.12 2311.92,-267.32 2308.12,-230.25 2281.5,-182.56 2243.84,-115.08 2207.1,-114.85 2133.5,-91.28 1942.72,-30.19 1302.35,-22.68 1136.82,-21.77"/>
<polygon fill="#c0392b" stroke="#c0392b" points="1566.75,-353.37 1561.06,-358.12 1568.47,-357.95 1566.75,-353.37"/>
</g>
<!-- kardiologie -->
<g id="node18" class="node">
<title>kardiologie</title>
<path fill="#fff3cd" stroke="black" d="M2103.62,-130.06C2103.62,-130.06 1945.38,-130.06 1945.38,-130.06 1939.38,-130.06 1933.38,-124.06 1933.38,-118.06 1933.38,-118.06 1933.38,-105.78 1933.38,-105.78 1933.38,-99.78 1939.38,-93.78 1945.38,-93.78 1945.38,-93.78 2103.62,-93.78 2103.62,-93.78 2109.62,-93.78 2115.62,-99.78 2115.62,-105.78 2115.62,-105.78 2115.62,-118.06 2115.62,-118.06 2115.62,-124.06 2109.62,-130.06 2103.62,-130.06"/>
<text xml:space="preserve" text-anchor="start" x="1951.38" y="-111.97" font-family="Helvetica,sans-Serif" font-size="11.00">Kardiologie 2027.0.0&#45;ballot.rc1</text>
<text xml:space="preserve" text-anchor="start" x="2011.75" y="-103.82" font-family="Helvetica,sans-Serif" font-size="8.00">(Ballot)</text>
</g>
<!-- meta&#45;&gt;kardiologie -->
<g id="edge40" class="edge">
<title>meta&#45;&gt;kardiologie</title>
<path fill="none" stroke="#c0392b" stroke-dasharray="5,2" d="M1567.45,-355.76C1576.91,-352.34 1586.9,-349.23 1596.5,-347.12 1665.46,-331.98 2178.27,-352.62 2230.5,-305.12 2271.06,-268.23 2276.89,-226.79 2244.5,-182.56 2215.09,-142.4 2162.4,-124.82 2115.96,-117.36"/>
<polygon fill="#c0392b" stroke="#c0392b" points="1566.76,-353.4 1561.06,-358.15 1568.48,-357.99 1566.76,-353.4"/>
</g>
<!-- symptom -->
<g id="node19" class="node">
<title>symptom</title>
<path fill="#fff3cd" stroke="black" d="M2969.5,-305.12C2969.5,-305.12 2831.5,-305.12 2831.5,-305.12 2825.5,-305.12 2819.5,-299.12 2819.5,-293.12 2819.5,-293.12 2819.5,-280.84 2819.5,-280.84 2819.5,-274.84 2825.5,-268.84 2831.5,-268.84 2831.5,-268.84 2969.5,-268.84 2969.5,-268.84 2975.5,-268.84 2981.5,-274.84 2981.5,-280.84 2981.5,-280.84 2981.5,-293.12 2981.5,-293.12 2981.5,-299.12 2975.5,-305.12 2969.5,-305.12"/>
<text xml:space="preserve" text-anchor="start" x="2837.5" y="-287.03" font-family="Helvetica,sans-Serif" font-size="11.00">Symptome 2027.0.0&#45;ballot</text>
<text xml:space="preserve" text-anchor="start" x="2849.12" y="-278.88" font-family="Helvetica,sans-Serif" font-size="8.00">(Ballot) · vollständig kohärent</text>
</g>
<!-- meta&#45;&gt;symptom -->
<g id="edge43" class="edge">
<title>meta&#45;&gt;symptom</title>
<path fill="none" stroke="#7f7f7f" d="M1566.76,-355.75C1576.42,-352.26 1586.65,-349.12 1596.5,-347.12 1859.07,-293.76 2534.98,-332.71 2801.5,-305.12 2807.23,-304.53 2813.12,-303.8 2819.05,-302.99"/>
<polygon fill="#7f7f7f" stroke="#7f7f7f" points="1565.92,-353.45 1560.23,-358.21 1567.64,-358.03 1565.92,-353.45"/>
</g>
<!-- lungenfunktion -->
<g id="node20" class="node">
<title>lungenfunktion</title>
<path fill="#fff3cd" stroke="black" d="M1453.38,-218.84C1453.38,-218.84 1275.62,-218.84 1275.62,-218.84 1269.62,-218.84 1263.62,-212.84 1263.62,-206.84 1263.62,-206.84 1263.62,-194.56 1263.62,-194.56 1263.62,-188.56 1269.62,-182.56 1275.62,-182.56 1275.62,-182.56 1453.38,-182.56 1453.38,-182.56 1459.38,-182.56 1465.38,-188.56 1465.38,-194.56 1465.38,-194.56 1465.38,-206.84 1465.38,-206.84 1465.38,-212.84 1459.38,-218.84 1453.38,-218.84"/>
<text xml:space="preserve" text-anchor="start" x="1281.62" y="-200.75" font-family="Helvetica,sans-Serif" font-size="11.00">Lungenfunktion 2027.0.0&#45;ballot.rc2</text>
<text xml:space="preserve" text-anchor="start" x="1294.38" y="-192.6" font-family="Helvetica,sans-Serif" font-size="8.00">(Ballot) · </text>
<text xml:space="preserve" text-anchor="start" x="1326.62" y="-192.6" font-family="Helvetica,sans-Serif" font-size="8.00" fill="#c0392b">Dep&#45;Tippfehler de.basiprofil.r4</text>
</g>
<!-- meta&#45;&gt;lungenfunktion -->
<g id="edge44" class="edge">
<title>meta&#45;&gt;lungenfunktion</title>
<path fill="none" stroke="#c0392b" stroke-dasharray="5,2" d="M1499.38,-352.63C1467.65,-317.12 1408.4,-250.82 1380.2,-219.26"/>
<polygon fill="#c0392b" stroke="#c0392b" points="1497.47,-354.17 1503.96,-357.76 1501.13,-350.9 1497.47,-354.17"/>
</g>
<!-- icu -->
<g id="node8" class="node">
<title>icu</title>
<path fill="#d4edda" stroke="black" d="M1737.75,-218.84C1737.75,-218.84 1661.25,-218.84 1661.25,-218.84 1655.25,-218.84 1649.25,-212.84 1649.25,-206.84 1649.25,-206.84 1649.25,-194.56 1649.25,-194.56 1649.25,-188.56 1655.25,-182.56 1661.25,-182.56 1661.25,-182.56 1737.75,-182.56 1737.75,-182.56 1743.75,-182.56 1749.75,-188.56 1749.75,-194.56 1749.75,-194.56 1749.75,-206.84 1749.75,-206.84 1749.75,-212.84 1743.75,-218.84 1737.75,-218.84"/>
<text xml:space="preserve" text-anchor="start" x="1667.25" y="-200.75" font-family="Helvetica,sans-Serif" font-size="11.00">ICU 2027.0.0</text>
<text xml:space="preserve" text-anchor="start" x="1689.38" y="-192.6" font-family="Helvetica,sans-Serif" font-size="8.00">(final)</text>
</g>
<!-- base&#45;&gt;icu -->
<g id="edge7" class="edge">
<title>base&#45;&gt;icu</title>
<path fill="none" stroke="#c0392b" stroke-dasharray="5,2" d="M1622.87,-263.2C1640.15,-249.34 1661.87,-231.9 1677.77,-219.14"/>
<polygon fill="#c0392b" stroke="#c0392b" points="1621.36,-261.28 1617.44,-267.57 1624.43,-265.1 1621.36,-261.28"/>
</g>
<!-- base&#45;&gt;molgen -->
<g id="edge9" class="edge">
<title>base&#45;&gt;molgen</title>
<path fill="none" stroke="#7f7f7f" d="M1492.5,-271.38C1374.79,-254.54 1184.07,-227.25 1079.65,-212.31"/>
<polygon fill="#7f7f7f" stroke="#7f7f7f" points="1492.07,-273.8 1499.35,-272.36 1492.77,-268.95 1492.07,-273.8"/>
</g>
<!-- base&#45;&gt;bildgebung -->
<g id="edge12" class="edge">
<title>base&#45;&gt;bildgebung</title>
<path fill="none" stroke="#c0392b" stroke-dasharray="5,2" d="M1492.35,-276.02C1322.46,-259.44 984.52,-226.48 821.99,-210.62"/>
<polygon fill="#c0392b" stroke="#c0392b" points="1492.09,-278.45 1499.3,-276.69 1492.57,-273.58 1492.09,-278.45"/>
</g>
<!-- base&#45;&gt;dokument -->
<g id="edge15" class="edge">
<title>base&#45;&gt;dokument</title>
<path fill="none" stroke="#7f7f7f" d="M1696.48,-268.86C1787.75,-253.54 1920.22,-231.3 2007.34,-216.67"/>
<polygon fill="#7f7f7f" stroke="#7f7f7f" points="1696.32,-266.4 1689.83,-269.98 1697.14,-271.23 1696.32,-266.4"/>
</g>
<!-- base&#45;&gt;onko -->
<g id="edge18" class="edge">
<title>base&#45;&gt;onko</title>
<path fill="none" stroke="#c0392b" stroke-dasharray="5,2" d="M1576.96,-262.12C1557.28,-237.4 1522.9,-200.02 1483.5,-182.56 1241.27,-75.25 1149.14,-185.24 889.5,-132.56 883.7,-131.38 877.68,-129.83 871.78,-128.11"/>
<polygon fill="#c0392b" stroke="#c0392b" points="1574.95,-263.52 1581.18,-267.53 1578.81,-260.5 1574.95,-263.52"/>
</g>
<!-- base&#45;&gt;patho -->
<g id="edge24" class="edge">
<title>base&#45;&gt;patho</title>
<path fill="none" stroke="#7f7f7f" d="M1685.08,-266.1C1741.37,-249.41 1797.73,-221.92 1767.5,-182.56 1746.47,-155.18 1663.28,-136.26 1596.4,-125.12"/>
<polygon fill="#7f7f7f" stroke="#7f7f7f" points="1684.65,-263.68 1678.6,-267.97 1686,-268.38 1684.65,-263.68"/>
</g>
<!-- base&#45;&gt;seltene -->
<g id="edge27" class="edge">
<title>base&#45;&gt;seltene</title>
<path fill="none" stroke="#c0392b" stroke-dasharray="5,2" d="M1590.46,-260.36C1585.21,-236.2 1573.55,-201.01 1548.5,-182.56 1462.77,-119.44 1132.44,-112.79 1006.06,-112.62"/>
<polygon fill="#c0392b" stroke="#c0392b" points="1588,-260.53 1591.77,-266.92 1592.8,-259.58 1588,-260.53"/>
</g>
<!-- base&#45;&gt;mtb -->
<g id="edge33" class="edge">
<title>base&#45;&gt;mtb</title>
<path fill="none" stroke="#c0392b" stroke-dasharray="5,2" d="M1696.08,-271.74C1761.71,-257.72 1829.69,-231.11 1799.5,-182.56 1727.95,-67.48 1274.32,-31.91 1136.9,-23.71"/>
<polygon fill="#c0392b" stroke="#c0392b" points="1695.94,-269.27 1689.58,-273.08 1696.93,-274.07 1695.94,-269.27"/>
</g>
<!-- base&#45;&gt;kardiologie -->
<g id="edge41" class="edge">
<title>base&#45;&gt;kardiologie</title>
<path fill="none" stroke="#c0392b" stroke-dasharray="5,2" d="M1696.55,-277.48C1759.76,-269.03 1841.08,-252.21 1906.5,-218.84 1950.15,-196.57 1990.15,-154.06 2010.47,-130.23"/>
<polygon fill="#c0392b" stroke="#c0392b" points="1696.27,-275.05 1689.65,-278.38 1696.9,-279.91 1696.27,-275.05"/>
</g>
<!-- base&#45;&gt;lungenfunktion -->
<g id="edge45" class="edge">
<title>base&#45;&gt;lungenfunktion</title>
<path fill="none" stroke="#c0392b" stroke-dasharray="5,2" d="M1539,-265.64C1500.33,-251.47 1449.26,-232.76 1412.37,-219.24"/>
<polygon fill="#c0392b" stroke="#c0392b" points="1537.73,-267.79 1545.14,-267.89 1539.41,-263.19 1537.73,-267.79"/>
</g>
<!-- mikrobio -->
<g id="node12" class="node">
<title>mikrobio</title>
<path fill="#fff3cd" stroke="black" d="M2615,-218.84C2615,-218.84 2456,-218.84 2456,-218.84 2450,-218.84 2444,-212.84 2444,-206.84 2444,-206.84 2444,-194.56 2444,-194.56 2444,-188.56 2450,-182.56 2456,-182.56 2456,-182.56 2615,-182.56 2615,-182.56 2621,-182.56 2627,-188.56 2627,-194.56 2627,-194.56 2627,-206.84 2627,-206.84 2627,-212.84 2621,-218.84 2615,-218.84"/>
<text xml:space="preserve" text-anchor="start" x="2462" y="-200.75" font-family="Helvetica,sans-Serif" font-size="11.00">Mikrobiologie 2027.0.0&#45;alpha.5</text>
<text xml:space="preserve" text-anchor="start" x="2522.38" y="-192.6" font-family="Helvetica,sans-Serif" font-size="8.00">(Alpha)</text>
</g>
<!-- labor&#45;&gt;mikrobio -->
<g id="edge16" class="edge">
<title>labor&#45;&gt;mikrobio</title>
<path fill="none" stroke="#c0392b" stroke-dasharray="5,2" d="M2525.78,-260.21C2527.99,-246.9 2530.63,-231 2532.6,-219.14"/>
<polygon fill="#c0392b" stroke="#c0392b" points="2523.38,-259.72 2524.65,-267.02 2528.21,-260.52 2523.38,-259.72"/>
</g>
<!-- medikation&#45;&gt;bildgebung -->
<g id="edge13" class="edge">
<title>medikation&#45;&gt;bildgebung</title>
<path fill="none" stroke="#7f7f7f" d="M700.96,-260.97C707.67,-247.5 715.79,-231.23 721.81,-219.14"/>
<polygon fill="#7f7f7f" stroke="#7f7f7f" points="698.81,-259.8 697.88,-267.16 703.19,-261.99 698.81,-259.8"/>
</g>
<!-- medikation&#45;&gt;onko -->
<g id="edge20" class="edge">
<title>medikation&#45;&gt;onko</title>
<path fill="none" stroke="#7f7f7f" d="M626.13,-265.44C580.04,-246.87 529.6,-217.19 556.5,-182.56 584.6,-146.4 717.65,-125.88 787.09,-117.47"/>
<polygon fill="#7f7f7f" stroke="#7f7f7f" points="624.96,-267.61 632.37,-267.88 626.74,-263.04 624.96,-267.61"/>
</g>
<!-- medikation&#45;&gt;seltene -->
<g id="edge29" class="edge">
<title>medikation&#45;&gt;seltene</title>
<path fill="none" stroke="#7f7f7f" d="M656.88,-263.4C630.35,-241.71 599.95,-208.5 621.5,-182.56 698.92,-89.36 771.66,-160.75 889.5,-132.56 895.16,-131.21 901.05,-129.67 906.89,-128.07"/>
<polygon fill="#7f7f7f" stroke="#7f7f7f" points="655.32,-265.29 662.33,-267.71 658.36,-261.45 655.32,-265.29"/>
</g>
<!-- medikation&#45;&gt;mtb -->
<g id="edge35" class="edge">
<title>medikation&#45;&gt;mtb</title>
<path fill="none" stroke="#7f7f7f" d="M614.04,-265.73C564.89,-248.4 513.89,-220.27 539.5,-182.56 599.39,-94.35 941.19,-42.06 1058.21,-26.54"/>
<polygon fill="#7f7f7f" stroke="#7f7f7f" points="613.05,-267.98 620.47,-267.93 614.64,-263.34 613.05,-267.98"/>
</g>
<!-- medikation&#45;&gt;lungenfunktion -->
<g id="edge46" class="edge">
<title>medikation&#45;&gt;lungenfunktion</title>
<path fill="none" stroke="#7f7f7f" d="M777.83,-274.84C903.43,-259.18 1131.58,-230.74 1263.3,-214.32"/>
<polygon fill="#7f7f7f" stroke="#7f7f7f" points="777.85,-272.37 771.21,-275.67 778.46,-277.23 777.85,-272.37"/>
</g>
<!-- biobank&#45;&gt;molgen -->
<g id="edge10" class="edge">
<title>biobank&#45;&gt;molgen</title>
<path fill="none" stroke="#7f7f7f" d="M1101.5,-263.94C1079.94,-249.96 1052.44,-232.13 1032.4,-219.14"/>
<polygon fill="#7f7f7f" stroke="#7f7f7f" points="1100.09,-265.94 1107.29,-267.69 1102.75,-261.83 1100.09,-265.94"/>
</g>
<!-- biobank&#45;&gt;onko -->
<g id="edge19" class="edge">
<title>biobank&#45;&gt;onko</title>
<path fill="none" stroke="#c0392b" stroke-dasharray="5,2" d="M1052.27,-273.23C1008.19,-263.55 954.8,-246.92 913.5,-218.84 880.31,-196.28 853.98,-156.6 840.15,-132.74"/>
<polygon fill="#c0392b" stroke="#c0392b" points="1051.54,-275.58 1058.9,-274.65 1052.57,-270.79 1051.54,-275.58"/>
</g>
<!-- biobank&#45;&gt;patho -->
<g id="edge25" class="edge">
<title>biobank&#45;&gt;patho</title>
<path fill="none" stroke="#7f7f7f" d="M1154.51,-262.24C1174.67,-238.64 1208.65,-203.06 1245.5,-182.56 1298.37,-153.15 1364.23,-135.7 1416.56,-125.62"/>
<polygon fill="#7f7f7f" stroke="#7f7f7f" points="1152.8,-260.47 1150.18,-267.41 1156.55,-263.62 1152.8,-260.47"/>
</g>
<!-- biobank&#45;&gt;mtb -->
<g id="edge34" class="edge">
<title>biobank&#45;&gt;mtb</title>
<path fill="none" stroke="#c0392b" stroke-dasharray="5,2" d="M1131.84,-260.52C1124.3,-208.05 1107.16,-88.85 1100.36,-41.54"/>
<polygon fill="#c0392b" stroke="#c0392b" points="1129.37,-260.56 1132.79,-267.14 1134.22,-259.86 1129.37,-260.56"/>
</g>
<!-- studie&#45;&gt;onko -->
<g id="edge22" class="edge">
<title>studie&#45;&gt;onko</title>
<path fill="none" stroke="#c0392b" stroke-dasharray="5,2" d="M96.61,-261.89C115.53,-237.33 148.44,-200.39 186.5,-182.56 293.9,-132.24 661.9,-117.55 787.27,-113.95"/>
<polygon fill="#c0392b" stroke="#c0392b" points="94.82,-260.19 92.56,-267.25 98.73,-263.14 94.82,-260.19"/>
</g>
<!-- studie&#45;&gt;seltene -->
<g id="edge31" class="edge">
<title>studie&#45;&gt;seltene</title>
<path fill="none" stroke="#c0392b" stroke-dasharray="5,2" d="M146.01,-266.1C225.43,-243.01 362.59,-205.21 482.5,-182.56 661.58,-148.73 711.02,-169.43 889.5,-132.56 895.2,-131.38 901.11,-129.96 906.97,-128.42"/>
<polygon fill="#c0392b" stroke="#c0392b" points="145.52,-263.69 139.49,-268 146.89,-268.39 145.52,-263.69"/>
</g>
<!-- studie&#45;&gt;mtb -->
<g id="edge39" class="edge">
<title>studie&#45;&gt;mtb</title>
<path fill="none" stroke="#c0392b" stroke-dasharray="5,2" d="M84.43,-260.42C90.41,-236.55 102.92,-201.78 127.5,-182.56 276.6,-65.97 895.21,-30.62 1058.06,-23.25"/>
<polygon fill="#c0392b" stroke="#c0392b" points="82.05,-259.83 82.85,-267.2 86.82,-260.94 82.05,-259.83"/>
</g>
<!-- icu&#45;&gt;seltene -->
<g id="edge30" class="edge">
<title>icu&#45;&gt;seltene</title>
<path fill="none" stroke="#c0392b" stroke-dasharray="5,2" d="M1641.2,-185.98C1634.91,-184.72 1628.58,-183.55 1622.5,-182.56 1393.59,-145.24 1116.99,-123.79 1006.05,-116.15"/>
<polygon fill="#c0392b" stroke="#c0392b" points="1640.3,-188.3 1647.65,-187.31 1641.29,-183.5 1640.3,-188.3"/>
</g>
<!-- icu&#45;&gt;kardiologie -->
<g id="edge42" class="edge">
<title>icu&#45;&gt;kardiologie</title>
<path fill="none" stroke="#c0392b" stroke-dasharray="5,2" d="M1758.03,-184.07C1814.45,-169.01 1899.68,-146.25 1958.48,-130.55"/>
<polygon fill="#c0392b" stroke="#c0392b" points="1757.52,-181.67 1751.39,-185.85 1758.78,-186.41 1757.52,-181.67"/>
</g>
<!-- molgen&#45;&gt;onko -->
<g id="edge21" class="edge">
<title>molgen&#45;&gt;onko</title>
<path fill="none" stroke="#7f7f7f" d="M962.56,-178.53C934.46,-164.67 897.96,-146.68 870.3,-133.04"/>
<polygon fill="#7f7f7f" stroke="#7f7f7f" points="961.16,-180.57 968.53,-181.47 963.33,-176.18 961.16,-180.57"/>
</g>
<!-- molgen&#45;&gt;seltene -->
<g id="edge28" class="edge">
<title>molgen&#45;&gt;seltene</title>
<path fill="none" stroke="#7f7f7f" d="M991.59,-175.07C984.05,-161.72 974.86,-145.43 967.77,-132.88"/>
<polygon fill="#7f7f7f" stroke="#7f7f7f" points="989.26,-175.93 994.84,-180.82 993.53,-173.52 989.26,-175.93"/>
</g>
<!-- molgen&#45;&gt;mtb -->
<g id="edge36" class="edge">
<title>molgen&#45;&gt;mtb</title>
<path fill="none" stroke="#7f7f7f" d="M1018.17,-175.18C1036.55,-139.6 1070.28,-74.32 1087.22,-41.54"/>
<polygon fill="#7f7f7f" stroke="#7f7f7f" points="1016.22,-173.61 1015.18,-180.96 1020.57,-175.86 1016.22,-173.61"/>
</g>
<!-- onko&#45;&gt;mtb -->
<g id="edge37" class="edge">
<title>onko&#45;&gt;mtb</title>
<path fill="none" stroke="#7f7f7f" d="M880.02,-94.09C931.76,-76.85 1011.09,-50.42 1058.29,-34.7"/>
<polygon fill="#7f7f7f" stroke="#7f7f7f" points="879.27,-91.76 873.4,-96.29 880.82,-96.41 879.27,-91.76"/>
</g>
<!-- patho&#45;&gt;mtb -->
<g id="edge38" class="edge">
<title>patho&#45;&gt;mtb</title>
<path fill="none" stroke="#7f7f7f" d="M1417.38,-91.47C1330.13,-72.42 1201.21,-44.28 1136.93,-30.25"/>
<polygon fill="#7f7f7f" stroke="#7f7f7f" points="1416.85,-93.86 1424.22,-92.96 1417.9,-89.07 1416.85,-93.86"/>
</g>
<!-- consent -->
<g id="node17" class="node">
<title>consent</title>
<path fill="#fff3cd" stroke="black" d="M3221.5,-305.12C3221.5,-305.12 3029.5,-305.12 3029.5,-305.12 3023.5,-305.12 3017.5,-299.12 3017.5,-293.12 3017.5,-293.12 3017.5,-280.84 3017.5,-280.84 3017.5,-274.84 3023.5,-268.84 3029.5,-268.84 3029.5,-268.84 3221.5,-268.84 3221.5,-268.84 3227.5,-268.84 3233.5,-274.84 3233.5,-280.84 3233.5,-280.84 3233.5,-293.12 3233.5,-293.12 3233.5,-299.12 3227.5,-305.12 3221.5,-305.12"/>
<text xml:space="preserve" text-anchor="start" x="3059.12" y="-287.03" font-family="Helvetica,sans-Serif" font-size="11.00">Consent 2027.0.0&#45;ballot.rc1</text>
<text xml:space="preserve" text-anchor="start" x="3035.5" y="-278.88" font-family="Helvetica,sans-Serif" font-size="8.00">(Ballot) · → de.einwilligungsmanagement 2.0.4&#45;rc1</text>
</g>
<!-- soziodem -->
<g id="node21" class="node">
<title>soziodem</title>
<path fill="#e2e3e5" stroke="#999999" d="M1764.12,-399.4C1764.12,-399.4 1650.88,-399.4 1650.88,-399.4 1644.88,-399.4 1638.88,-393.4 1638.88,-387.4 1638.88,-387.4 1638.88,-367.12 1638.88,-367.12 1638.88,-361.12 1644.88,-355.12 1650.88,-355.12 1650.88,-355.12 1764.12,-355.12 1764.12,-355.12 1770.12,-355.12 1776.12,-361.12 1776.12,-367.12 1776.12,-367.12 1776.12,-387.4 1776.12,-387.4 1776.12,-393.4 1770.12,-399.4 1764.12,-399.4"/>
<text xml:space="preserve" text-anchor="start" x="1662.5" y="-381.31" font-family="Helvetica,sans-Serif" font-size="11.00" fill="#4d4d4d">Soziodemographie</text>
<text xml:space="preserve" text-anchor="start" x="1656.88" y="-373.16" font-family="Helvetica,sans-Serif" font-size="8.00" fill="#4d4d4d">2027.0.0&#45;ballot.rc1 im Repo,</text>
<text xml:space="preserve" text-anchor="start" x="1676.75" y="-365.16" font-family="Helvetica,sans-Serif" font-size="8.00" fill="#4d4d4d">in keiner Registry</text>
</g>
</g>
</svg>
