<?xml version="1.0" encoding="UTF-8" standalone="no"?>
<!DOCTYPE svg PUBLIC "-//W3C//DTD SVG 1.1//EN"
 "http://www.w3.org/Graphics/SVG/1.1/DTD/svg11.dtd">
<!-- Generated by graphviz version 14.0.2 (20251019.1705)
 -->
<!-- Title: MII_KDS_2027_Ballot Pages: 1 -->
<svg width="3311pt" height="476pt"
 viewBox="0.00 0.00 3311.00 476.00" xmlns="http://www.w3.org/2000/svg" xmlns:xlink="http://www.w3.org/1999/xlink">
<g id="graph0" class="graph" transform="scale(1 1) rotate(0) translate(4 471.65)">
<title>MII_KDS_2027_Ballot</title>
<polygon fill="white" stroke="none" points="-4,4 -4,-471.65 3307,-471.65 3307,4 -4,4"/>
<text xml:space="preserve" text-anchor="start" x="1497.38" y="-450.4" font-family="Helvetica,sans-Serif" font-weight="bold" font-size="15.00">MII KDS 2027 Ballot — Abhängigkeitsgraph</text>
<text xml:space="preserve" text-anchor="start" x="1511.25" y="-440.15" font-family="Helvetica,sans-Serif" font-size="10.00">Pfeil = „hängt ab von&quot; · Nur MII&#45;interne Deps · Stand 2026&#45;09&#45;13</text>
<text xml:space="preserve" text-anchor="start" x="1503.75" y="-430.15" font-family="Helvetica,sans-Serif" font-size="10.00" fill="#c0392b">Rot gestrichelt = Modul deklariert noch die 2026er Version des Ziels</text>
<g id="clust1" class="cluster">
<title>cluster_nonfinal</title>
<polygon fill="#f8f9fa" stroke="#999999" stroke-dasharray="5,2" points="1704.62,-337.12 1704.62,-416.65 1899.62,-416.65 1899.62,-337.12 1704.62,-337.12"/>
<text xml:space="preserve" text-anchor="start" x="1712.88" y="-404.15" font-family="Helvetica,sans-Serif" font-weight="bold" font-size="10.00">Angekündigt, Package nicht publiziert</text>
</g>
<!-- meta -->
<g id="node1" class="node">
<title>meta</title>
<path fill="#fff3cd" stroke="black" d="M1674.75,-385.4C1674.75,-385.4 1564.5,-385.4 1564.5,-385.4 1558.5,-385.4 1552.5,-379.4 1552.5,-373.4 1552.5,-373.4 1552.5,-361.12 1552.5,-361.12 1552.5,-355.12 1558.5,-349.12 1564.5,-349.12 1564.5,-349.12 1674.75,-349.12 1674.75,-349.12 1680.75,-349.12 1686.75,-355.12 1686.75,-361.12 1686.75,-361.12 1686.75,-373.4 1686.75,-373.4 1686.75,-379.4 1680.75,-385.4 1674.75,-385.4"/>
<text xml:space="preserve" text-anchor="start" x="1570.5" y="-367.31" font-family="Helvetica,sans-Serif" font-size="11.00">Meta 2027.0.0&#45;ballot</text>
<text xml:space="preserve" text-anchor="start" x="1594.88" y="-359.16" font-family="Helvetica,sans-Serif" font-size="8.00">(finaler Ballot)</text>
</g>
<!-- base -->
<g id="node2" class="node">
<title>base</title>
<path fill="#fff3cd" stroke="black" d="M1174.12,-295.12C1174.12,-295.12 1063.12,-295.12 1063.12,-295.12 1057.12,-295.12 1051.12,-289.12 1051.12,-283.12 1051.12,-283.12 1051.12,-270.84 1051.12,-270.84 1051.12,-264.84 1057.12,-258.84 1063.12,-258.84 1063.12,-258.84 1174.12,-258.84 1174.12,-258.84 1180.12,-258.84 1186.12,-264.84 1186.12,-270.84 1186.12,-270.84 1186.12,-283.12 1186.12,-283.12 1186.12,-289.12 1180.12,-295.12 1174.12,-295.12"/>
<text xml:space="preserve" text-anchor="start" x="1069.12" y="-277.03" font-family="Helvetica,sans-Serif" font-size="11.00">Base 2027.0.0&#45;ballot</text>
<text xml:space="preserve" text-anchor="start" x="1093.88" y="-268.88" font-family="Helvetica,sans-Serif" font-size="8.00">(finaler Ballot)</text>
</g>
<!-- meta&#45;&gt;base -->
<g id="edge1" class="edge">
<title>meta&#45;&gt;base</title>
<path fill="none" stroke="#7f7f7f" d="M1543.94,-353.91C1460.66,-340.19 1322.93,-317.05 1204.62,-295.12 1198.64,-294.01 1192.42,-292.83 1186.19,-291.63"/>
<polygon fill="#7f7f7f" stroke="#7f7f7f" points="1543.52,-356.33 1550.83,-355.05 1544.32,-351.49 1543.52,-356.33"/>
</g>
<!-- labor -->
<g id="node3" class="node">
<title>labor</title>
<path fill="#fff3cd" stroke="black" d="M2722.12,-295.12C2722.12,-295.12 2575.12,-295.12 2575.12,-295.12 2569.12,-295.12 2563.12,-289.12 2563.12,-283.12 2563.12,-283.12 2563.12,-270.84 2563.12,-270.84 2563.12,-264.84 2569.12,-258.84 2575.12,-258.84 2575.12,-258.84 2722.12,-258.84 2722.12,-258.84 2728.12,-258.84 2734.12,-264.84 2734.12,-270.84 2734.12,-270.84 2734.12,-283.12 2734.12,-283.12 2734.12,-289.12 2728.12,-295.12 2722.12,-295.12"/>
<text xml:space="preserve" text-anchor="start" x="2581.12" y="-277.03" font-family="Helvetica,sans-Serif" font-size="11.00">Laborbefund 2027.0.0&#45;ballot</text>
<text xml:space="preserve" text-anchor="start" x="2623.88" y="-268.88" font-family="Helvetica,sans-Serif" font-size="8.00">(finaler Ballot)</text>
</g>
<!-- meta&#45;&gt;labor -->
<g id="edge2" class="edge">
<title>meta&#45;&gt;labor</title>
<path fill="none" stroke="#7f7f7f" d="M1666.23,-345.75C1675.79,-342.3 1685.9,-339.17 1695.62,-337.12 2061.36,-259.91 2163.7,-332.53 2535.62,-295.12 2544.41,-294.24 2553.56,-293.14 2562.67,-291.94"/>
<polygon fill="#7f7f7f" stroke="#7f7f7f" points="1665.46,-343.42 1659.77,-348.17 1667.18,-348.01 1665.46,-343.42"/>
</g>
<!-- medikation -->
<g id="node4" class="node">
<title>medikation</title>
<path fill="#fff3cd" stroke="black" d="M1977.62,-295.12C1977.62,-295.12 1839.62,-295.12 1839.62,-295.12 1833.62,-295.12 1827.62,-289.12 1827.62,-283.12 1827.62,-283.12 1827.62,-270.84 1827.62,-270.84 1827.62,-264.84 1833.62,-258.84 1839.62,-258.84 1839.62,-258.84 1977.62,-258.84 1977.62,-258.84 1983.62,-258.84 1989.62,-264.84 1989.62,-270.84 1989.62,-270.84 1989.62,-283.12 1989.62,-283.12 1989.62,-289.12 1983.62,-295.12 1977.62,-295.12"/>
<text xml:space="preserve" text-anchor="start" x="1845.62" y="-277.03" font-family="Helvetica,sans-Serif" font-size="11.00">Medikation 2027.0.0&#45;ballot</text>
<text xml:space="preserve" text-anchor="start" x="1883.88" y="-268.88" font-family="Helvetica,sans-Serif" font-size="8.00">(finaler Ballot)</text>
</g>
<!-- meta&#45;&gt;medikation -->
<g id="edge3" class="edge">
<title>meta&#45;&gt;medikation</title>
<path fill="none" stroke="#7f7f7f" d="M1670.95,-345.82C1679.16,-342.77 1687.59,-339.77 1695.62,-337.12 1743.01,-321.5 1797.19,-306.49 1839.06,-295.5"/>
<polygon fill="#7f7f7f" stroke="#7f7f7f" points="1670.28,-343.46 1664.59,-348.21 1672.01,-348.04 1670.28,-343.46"/>
</g>
<!-- biobank -->
<g id="node5" class="node">
<title>biobank</title>
<path fill="#fff3cd" stroke="black" d="M297.25,-295.12C297.25,-295.12 172,-295.12 172,-295.12 166,-295.12 160,-289.12 160,-283.12 160,-283.12 160,-270.84 160,-270.84 160,-264.84 166,-258.84 172,-258.84 172,-258.84 297.25,-258.84 297.25,-258.84 303.25,-258.84 309.25,-264.84 309.25,-270.84 309.25,-270.84 309.25,-283.12 309.25,-283.12 309.25,-289.12 303.25,-295.12 297.25,-295.12"/>
<text xml:space="preserve" text-anchor="start" x="178" y="-277.03" font-family="Helvetica,sans-Serif" font-size="11.00">Biobank 2027.0.0&#45;ballot</text>
<text xml:space="preserve" text-anchor="start" x="209.88" y="-268.88" font-family="Helvetica,sans-Serif" font-size="8.00">(finaler Ballot)</text>
</g>
<!-- meta&#45;&gt;biobank -->
<g id="edge4" class="edge">
<title>meta&#45;&gt;biobank</title>
<path fill="none" stroke="#7f7f7f" d="M1543.95,-365C1345.36,-361.05 793.17,-345.98 336.62,-295.12 327.88,-294.15 318.75,-292.92 309.69,-291.57"/>
<polygon fill="#7f7f7f" stroke="#7f7f7f" points="1543.72,-367.44 1550.77,-365.13 1543.82,-362.54 1543.72,-367.44"/>
</g>
<!-- studie -->
<g id="node6" class="node">
<title>studie</title>
<path fill="#fff3cd" stroke="black" d="M2307.12,-295.12C2307.12,-295.12 2190.12,-295.12 2190.12,-295.12 2184.12,-295.12 2178.12,-289.12 2178.12,-283.12 2178.12,-283.12 2178.12,-270.84 2178.12,-270.84 2178.12,-264.84 2184.12,-258.84 2190.12,-258.84 2190.12,-258.84 2307.12,-258.84 2307.12,-258.84 2313.12,-258.84 2319.12,-264.84 2319.12,-270.84 2319.12,-270.84 2319.12,-283.12 2319.12,-283.12 2319.12,-289.12 2313.12,-295.12 2307.12,-295.12"/>
<text xml:space="preserve" text-anchor="start" x="2196.12" y="-277.03" font-family="Helvetica,sans-Serif" font-size="11.00">Studie 2027.0.0&#45;ballot</text>
<text xml:space="preserve" text-anchor="start" x="2223.88" y="-268.88" font-family="Helvetica,sans-Serif" font-size="8.00">(finaler Ballot)</text>
</g>
<!-- meta&#45;&gt;studie -->
<g id="edge5" class="edge">
<title>meta&#45;&gt;studie</title>
<path fill="none" stroke="#7f7f7f" d="M1667.56,-345.73C1676.75,-342.42 1686.38,-339.35 1695.62,-337.12 1785.45,-315.49 2050.02,-293.15 2177.87,-283.25"/>
<polygon fill="#7f7f7f" stroke="#7f7f7f" points="1666.75,-343.42 1661.05,-348.16 1668.46,-348.01 1666.75,-343.42"/>
</g>
<!-- pros -->
<g id="node7" class="node">
<title>pros</title>
<path fill="#fff3cd" stroke="black" d="M2906.88,-295.12C2906.88,-295.12 2782.38,-295.12 2782.38,-295.12 2776.38,-295.12 2770.38,-289.12 2770.38,-283.12 2770.38,-283.12 2770.38,-270.84 2770.38,-270.84 2770.38,-264.84 2776.38,-258.84 2782.38,-258.84 2782.38,-258.84 2906.88,-258.84 2906.88,-258.84 2912.88,-258.84 2918.88,-264.84 2918.88,-270.84 2918.88,-270.84 2918.88,-283.12 2918.88,-283.12 2918.88,-289.12 2912.88,-295.12 2906.88,-295.12"/>
<text xml:space="preserve" text-anchor="start" x="2788.38" y="-277.03" font-family="Helvetica,sans-Serif" font-size="11.00">PROs 2027.0.0&#45;ballot.1</text>
<text xml:space="preserve" text-anchor="start" x="2819.88" y="-268.88" font-family="Helvetica,sans-Serif" font-size="8.00">(finaler Ballot)</text>
</g>
<!-- meta&#45;&gt;pros -->
<g id="edge6" class="edge">
<title>meta&#45;&gt;pros</title>
<path fill="none" stroke="#7f7f7f" d="M1666.21,-345.67C1675.77,-342.22 1685.89,-339.12 1695.62,-337.12 2156.13,-242.37 2285.42,-347.64 2752.62,-295.12 2758.28,-294.48 2764.1,-293.7 2769.95,-292.83"/>
<polygon fill="#7f7f7f" stroke="#7f7f7f" points="1665.45,-343.34 1659.75,-348.09 1667.17,-347.93 1665.45,-343.34"/>
</g>
<!-- molgen -->
<g id="node9" class="node">
<title>molgen</title>
<path fill="#fff3cd" stroke="black" d="M607.75,-208.84C607.75,-208.84 431.5,-208.84 431.5,-208.84 425.5,-208.84 419.5,-202.84 419.5,-196.84 419.5,-196.84 419.5,-184.56 419.5,-184.56 419.5,-178.56 425.5,-172.56 431.5,-172.56 431.5,-172.56 607.75,-172.56 607.75,-172.56 613.75,-172.56 619.75,-178.56 619.75,-184.56 619.75,-184.56 619.75,-196.84 619.75,-196.84 619.75,-202.84 613.75,-208.84 607.75,-208.84"/>
<text xml:space="preserve" text-anchor="start" x="437.5" y="-190.75" font-family="Helvetica,sans-Serif" font-size="11.00">Molekulargenetik 2027.0.0&#45;ballot.1</text>
<text xml:space="preserve" text-anchor="start" x="494.88" y="-182.6" font-family="Helvetica,sans-Serif" font-size="8.00">(finaler Ballot)</text>
</g>
<!-- meta&#45;&gt;molgen -->
<g id="edge8" class="edge">
<title>meta&#45;&gt;molgen</title>
<path fill="none" stroke="#7f7f7f" d="M1543.84,-362.88C1412.25,-356.1 1133.4,-337.67 901.62,-295.12 782.69,-273.28 646.74,-232.59 573.38,-209.29"/>
<polygon fill="#7f7f7f" stroke="#7f7f7f" points="1543.66,-365.33 1550.78,-363.24 1543.91,-360.43 1543.66,-365.33"/>
</g>
<!-- bildgebung -->
<g id="node10" class="node">
<title>bildgebung</title>
<path fill="#fff3cd" stroke="black" d="M1694.25,-208.84C1694.25,-208.84 1545,-208.84 1545,-208.84 1539,-208.84 1533,-202.84 1533,-196.84 1533,-196.84 1533,-184.56 1533,-184.56 1533,-178.56 1539,-172.56 1545,-172.56 1545,-172.56 1694.25,-172.56 1694.25,-172.56 1700.25,-172.56 1706.25,-178.56 1706.25,-184.56 1706.25,-184.56 1706.25,-196.84 1706.25,-196.84 1706.25,-202.84 1700.25,-208.84 1694.25,-208.84"/>
<text xml:space="preserve" text-anchor="start" x="1551" y="-190.75" font-family="Helvetica,sans-Serif" font-size="11.00">Bildgebung 2027.0.0&#45;ballot.1</text>
<text xml:space="preserve" text-anchor="start" x="1594.88" y="-182.6" font-family="Helvetica,sans-Serif" font-size="8.00">(finaler Ballot)</text>
</g>
<!-- meta&#45;&gt;bildgebung -->
<g id="edge11" class="edge">
<title>meta&#45;&gt;bildgebung</title>
<path fill="none" stroke="#7f7f7f" d="M1619.62,-340.38C1619.62,-304.39 1619.62,-240.17 1619.62,-209.26"/>
<polygon fill="#7f7f7f" stroke="#7f7f7f" points="1617.18,-340.37 1619.63,-347.37 1622.08,-340.37 1617.18,-340.37"/>
</g>
<!-- dokument -->
<g id="node11" class="node">
<title>dokument</title>
<path fill="#fff3cd" stroke="black" d="M813,-208.84C813,-208.84 668.25,-208.84 668.25,-208.84 662.25,-208.84 656.25,-202.84 656.25,-196.84 656.25,-196.84 656.25,-184.56 656.25,-184.56 656.25,-178.56 662.25,-172.56 668.25,-172.56 668.25,-172.56 813,-172.56 813,-172.56 819,-172.56 825,-178.56 825,-184.56 825,-184.56 825,-196.84 825,-196.84 825,-202.84 819,-208.84 813,-208.84"/>
<text xml:space="preserve" text-anchor="start" x="674.25" y="-190.75" font-family="Helvetica,sans-Serif" font-size="11.00">Dokument 2027.0.0&#45;ballot.2</text>
<text xml:space="preserve" text-anchor="start" x="715.88" y="-182.6" font-family="Helvetica,sans-Serif" font-size="8.00">(finaler Ballot)</text>
</g>
<!-- meta&#45;&gt;dokument -->
<g id="edge14" class="edge">
<title>meta&#45;&gt;dokument</title>
<path fill="none" stroke="#7f7f7f" d="M1544.07,-362.42C1431.4,-355.5 1213.24,-337.51 1032.62,-295.12 940.21,-273.43 836.43,-232.49 780.88,-209.15"/>
<polygon fill="#7f7f7f" stroke="#7f7f7f" points="1543.68,-364.85 1550.81,-362.83 1543.98,-359.96 1543.68,-364.85"/>
</g>
<!-- onko -->
<g id="node13" class="node">
<title>onko</title>
<path fill="#fff3cd" stroke="black" d="M886.25,-122.56C886.25,-122.56 743,-122.56 743,-122.56 737,-122.56 731,-116.56 731,-110.56 731,-110.56 731,-98.28 731,-98.28 731,-92.28 737,-86.28 743,-86.28 743,-86.28 886.25,-86.28 886.25,-86.28 892.25,-86.28 898.25,-92.28 898.25,-98.28 898.25,-98.28 898.25,-110.56 898.25,-110.56 898.25,-116.56 892.25,-122.56 886.25,-122.56"/>
<text xml:space="preserve" text-anchor="start" x="749" y="-104.47" font-family="Helvetica,sans-Serif" font-size="11.00">Onkologie 2027.0.0&#45;ballot.1</text>
<text xml:space="preserve" text-anchor="start" x="789.88" y="-96.32" font-family="Helvetica,sans-Serif" font-size="8.00">(finaler Ballot)</text>
</g>
<!-- meta&#45;&gt;onko -->
<g id="edge17" class="edge">
<title>meta&#45;&gt;onko</title>
<path fill="none" stroke="#7f7f7f" d="M1543.74,-362.52C1288.4,-349.14 472.31,-299.51 401.62,-208.84 391.71,-196.12 391.18,-184.84 401.62,-172.56 442.98,-123.94 622.21,-110.43 730.51,-106.74"/>
<polygon fill="#7f7f7f" stroke="#7f7f7f" points="1543.6,-364.97 1550.71,-362.88 1543.85,-360.07 1543.6,-364.97"/>
</g>
<!-- patho -->
<g id="node14" class="node">
<title>patho</title>
<path fill="#fff3cd" stroke="black" d="M149.25,-122.56C149.25,-122.56 12,-122.56 12,-122.56 6,-122.56 0,-116.56 0,-110.56 0,-110.56 0,-98.28 0,-98.28 0,-92.28 6,-86.28 12,-86.28 12,-86.28 149.25,-86.28 149.25,-86.28 155.25,-86.28 161.25,-92.28 161.25,-98.28 161.25,-98.28 161.25,-110.56 161.25,-110.56 161.25,-116.56 155.25,-122.56 149.25,-122.56"/>
<text xml:space="preserve" text-anchor="start" x="18" y="-104.47" font-family="Helvetica,sans-Serif" font-size="11.00">Pathologie 2027.0.0&#45;ballot</text>
<text xml:space="preserve" text-anchor="start" x="55.88" y="-96.32" font-family="Helvetica,sans-Serif" font-size="8.00">(finaler Ballot)</text>
</g>
<!-- meta&#45;&gt;patho -->
<g id="edge23" class="edge">
<title>meta&#45;&gt;patho</title>
<path fill="none" stroke="#7f7f7f" d="M1543.81,-364.99C1249.7,-359.76 197.72,-338.11 141.62,-295.12 86.84,-253.14 80.4,-161.38 80.22,-122.93"/>
<polygon fill="#7f7f7f" stroke="#7f7f7f" points="1543.73,-367.44 1550.77,-365.11 1543.82,-362.54 1543.73,-367.44"/>
</g>
<!-- seltene -->
<g id="node15" class="node">
<title>seltene</title>
<path fill="#fff3cd" stroke="black" d="M1551.88,-122.56C1551.88,-122.56 1403.38,-122.56 1403.38,-122.56 1397.38,-122.56 1391.38,-116.56 1391.38,-110.56 1391.38,-110.56 1391.38,-98.28 1391.38,-98.28 1391.38,-92.28 1397.38,-86.28 1403.38,-86.28 1403.38,-86.28 1551.88,-86.28 1551.88,-86.28 1557.88,-86.28 1563.88,-92.28 1563.88,-98.28 1563.88,-98.28 1563.88,-110.56 1563.88,-110.56 1563.88,-116.56 1557.88,-122.56 1551.88,-122.56"/>
<text xml:space="preserve" text-anchor="start" x="1409.38" y="-104.47" font-family="Helvetica,sans-Serif" font-size="11.00">Seltene Erkr. 2027.0.0&#45;ballot</text>
<text xml:space="preserve" text-anchor="start" x="1452.88" y="-96.32" font-family="Helvetica,sans-Serif" font-size="8.00">(finaler Ballot)</text>
</g>
<!-- meta&#45;&gt;seltene -->
<g id="edge26" class="edge">
<title>meta&#45;&gt;seltene</title>
<path fill="none" stroke="#7f7f7f" d="M1600.67,-341.97C1577.94,-312 1539.76,-258.84 1514.62,-208.84 1500.06,-179.88 1488.52,-143.77 1482.42,-122.79"/>
<polygon fill="#7f7f7f" stroke="#7f7f7f" points="1598.71,-343.44 1604.91,-347.52 1602.6,-340.47 1598.71,-343.44"/>
</g>
<!-- mtb -->
<g id="node16" class="node">
<title>mtb</title>
<path fill="#fff3cd" stroke="black" d="M942.88,-36.28C942.88,-36.28 824.38,-36.28 824.38,-36.28 818.38,-36.28 812.38,-30.28 812.38,-24.28 812.38,-24.28 812.38,-12 812.38,-12 812.38,-6 818.38,0 824.38,0 824.38,0 942.88,0 942.88,0 948.88,0 954.88,-6 954.88,-12 954.88,-12 954.88,-24.28 954.88,-24.28 954.88,-30.28 948.88,-36.28 942.88,-36.28"/>
<text xml:space="preserve" text-anchor="start" x="830.38" y="-18.19" font-family="Helvetica,sans-Serif" font-size="11.00">MTB 2027.0.0&#45;ballot.1</text>
<text xml:space="preserve" text-anchor="start" x="858.88" y="-10.04" font-family="Helvetica,sans-Serif" font-size="8.00">(finaler Ballot)</text>
</g>
<!-- meta&#45;&gt;mtb -->
<g id="edge31" class="edge">
<title>meta&#45;&gt;mtb</title>
<path fill="none" stroke="#7f7f7f" d="M1666.57,-345.72C1676.03,-342.31 1686.02,-339.21 1695.62,-337.12 1769.27,-321.11 2321.01,-350.04 2372.62,-295.12 2410.95,-254.34 2521.56,-243.54 2358.62,-86.28 2307.61,-37.05 1243.04,-22.76 954.96,-19.79"/>
<polygon fill="#7f7f7f" stroke="#7f7f7f" points="1665.88,-343.37 1660.18,-348.12 1667.6,-347.95 1665.88,-343.37"/>
</g>
<!-- kardiologie -->
<g id="node18" class="node">
<title>kardiologie</title>
<path fill="#fff3cd" stroke="black" d="M2292.75,-122.56C2292.75,-122.56 2152.5,-122.56 2152.5,-122.56 2146.5,-122.56 2140.5,-116.56 2140.5,-110.56 2140.5,-110.56 2140.5,-98.28 2140.5,-98.28 2140.5,-92.28 2146.5,-86.28 2152.5,-86.28 2152.5,-86.28 2292.75,-86.28 2292.75,-86.28 2298.75,-86.28 2304.75,-92.28 2304.75,-98.28 2304.75,-98.28 2304.75,-110.56 2304.75,-110.56 2304.75,-116.56 2298.75,-122.56 2292.75,-122.56"/>
<text xml:space="preserve" text-anchor="start" x="2158.5" y="-104.47" font-family="Helvetica,sans-Serif" font-size="11.00">Kardiologie 2027.0.0&#45;ballot</text>
<text xml:space="preserve" text-anchor="start" x="2197.88" y="-96.32" font-family="Helvetica,sans-Serif" font-size="8.00">(finaler Ballot)</text>
</g>
<!-- meta&#45;&gt;kardiologie -->
<g id="edge39" class="edge">
<title>meta&#45;&gt;kardiologie</title>
<path fill="none" stroke="#7f7f7f" d="M1666.57,-345.75C1676.04,-342.33 1686.03,-339.22 1695.62,-337.12 1765.45,-321.82 2288.75,-347.29 2337.62,-295.12 2389.1,-240.17 2294.89,-158.52 2247.48,-122.99"/>
<polygon fill="#7f7f7f" stroke="#7f7f7f" points="1665.88,-343.39 1660.19,-348.14 1667.6,-347.98 1665.88,-343.39"/>
</g>
<!-- symptom -->
<g id="node19" class="node">
<title>symptom</title>
<path fill="#fff3cd" stroke="black" d="M3104.62,-295.12C3104.62,-295.12 2966.62,-295.12 2966.62,-295.12 2960.62,-295.12 2954.62,-289.12 2954.62,-283.12 2954.62,-283.12 2954.62,-270.84 2954.62,-270.84 2954.62,-264.84 2960.62,-258.84 2966.62,-258.84 2966.62,-258.84 3104.62,-258.84 3104.62,-258.84 3110.62,-258.84 3116.62,-264.84 3116.62,-270.84 3116.62,-270.84 3116.62,-283.12 3116.62,-283.12 3116.62,-289.12 3110.62,-295.12 3104.62,-295.12"/>
<text xml:space="preserve" text-anchor="start" x="2972.62" y="-277.03" font-family="Helvetica,sans-Serif" font-size="11.00">Symptome 2027.0.0&#45;ballot</text>
<text xml:space="preserve" text-anchor="start" x="3010.88" y="-268.88" font-family="Helvetica,sans-Serif" font-size="8.00">(finaler Ballot)</text>
</g>
<!-- meta&#45;&gt;symptom -->
<g id="edge41" class="edge">
<title>meta&#45;&gt;symptom</title>
<path fill="none" stroke="#7f7f7f" d="M1665.89,-345.74C1675.54,-342.25 1685.78,-339.12 1695.62,-337.12 1966.06,-282.3 2662.14,-323.39 2936.62,-295.12 2942.35,-294.53 2948.25,-293.81 2954.17,-293"/>
<polygon fill="#7f7f7f" stroke="#7f7f7f" points="1665.04,-343.44 1659.35,-348.2 1666.77,-348.02 1665.04,-343.44"/>
</g>
<!-- soziodemographie -->
<g id="node20" class="node">
<title>soziodemographie</title>
<path fill="#fff3cd" stroke="black" d="M1410.75,-295.12C1410.75,-295.12 1234.5,-295.12 1234.5,-295.12 1228.5,-295.12 1222.5,-289.12 1222.5,-283.12 1222.5,-283.12 1222.5,-270.84 1222.5,-270.84 1222.5,-264.84 1228.5,-258.84 1234.5,-258.84 1234.5,-258.84 1410.75,-258.84 1410.75,-258.84 1416.75,-258.84 1422.75,-264.84 1422.75,-270.84 1422.75,-270.84 1422.75,-283.12 1422.75,-283.12 1422.75,-289.12 1416.75,-295.12 1410.75,-295.12"/>
<text xml:space="preserve" text-anchor="start" x="1240.5" y="-277.03" font-family="Helvetica,sans-Serif" font-size="11.00">Soziodemographie 2027.0.0&#45;ballot</text>
<text xml:space="preserve" text-anchor="start" x="1297.88" y="-268.88" font-family="Helvetica,sans-Serif" font-size="8.00">(finaler Ballot)</text>
</g>
<!-- meta&#45;&gt;soziodemographie -->
<g id="edge42" class="edge">
<title>meta&#45;&gt;soziodemographie</title>
<path fill="none" stroke="#7f7f7f" d="M1552.52,-346.31C1501.18,-331.05 1431.06,-310.21 1381.8,-295.57"/>
<polygon fill="#7f7f7f" stroke="#7f7f7f" points="1551.73,-348.64 1559.14,-348.28 1553.13,-343.94 1551.73,-348.64"/>
</g>
<!-- lungenfunktion -->
<g id="node21" class="node">
<title>lungenfunktion</title>
<path fill="#fff3cd" stroke="black" d="M1923,-208.84C1923,-208.84 1754.25,-208.84 1754.25,-208.84 1748.25,-208.84 1742.25,-202.84 1742.25,-196.84 1742.25,-196.84 1742.25,-184.56 1742.25,-184.56 1742.25,-178.56 1748.25,-172.56 1754.25,-172.56 1754.25,-172.56 1923,-172.56 1923,-172.56 1929,-172.56 1935,-178.56 1935,-184.56 1935,-184.56 1935,-196.84 1935,-196.84 1935,-202.84 1929,-208.84 1923,-208.84"/>
<text xml:space="preserve" text-anchor="start" x="1760.25" y="-190.75" font-family="Helvetica,sans-Serif" font-size="11.00">Lungenfunktion 2027.0.0&#45;ballot.1</text>
<text xml:space="preserve" text-anchor="start" x="1813.88" y="-182.6" font-family="Helvetica,sans-Serif" font-size="8.00">(finaler Ballot)</text>
</g>
<!-- meta&#45;&gt;lungenfunktion -->
<g id="edge44" class="edge">
<title>meta&#45;&gt;lungenfunktion</title>
<path fill="none" stroke="#7f7f7f" d="M1647.9,-343.72C1692.09,-308.5 1776.59,-241.15 1816.59,-209.26"/>
<polygon fill="#7f7f7f" stroke="#7f7f7f" points="1646.55,-341.66 1642.61,-347.94 1649.61,-345.49 1646.55,-341.66"/>
</g>
<!-- icu -->
<g id="node8" class="node">
<title>icu</title>
<path fill="#fff3cd" stroke="black" d="M1189,-208.84C1189,-208.84 1020.25,-208.84 1020.25,-208.84 1014.25,-208.84 1008.25,-202.84 1008.25,-196.84 1008.25,-196.84 1008.25,-184.56 1008.25,-184.56 1008.25,-178.56 1014.25,-172.56 1020.25,-172.56 1020.25,-172.56 1189,-172.56 1189,-172.56 1195,-172.56 1201,-178.56 1201,-184.56 1201,-184.56 1201,-196.84 1201,-196.84 1201,-202.84 1195,-208.84 1189,-208.84"/>
<text xml:space="preserve" text-anchor="start" x="1026.25" y="-190.75" font-family="Helvetica,sans-Serif" font-size="11.00">Intensivmedizin 2027.0.0&#45;ballot.3</text>
<text xml:space="preserve" text-anchor="start" x="1079.88" y="-182.6" font-family="Helvetica,sans-Serif" font-size="8.00">(finaler Ballot)</text>
</g>
<!-- base&#45;&gt;icu -->
<g id="edge7" class="edge">
<title>base&#45;&gt;icu</title>
<path fill="none" stroke="#7f7f7f" d="M1114.34,-250.21C1112.13,-236.9 1109.49,-221 1107.52,-209.14"/>
<polygon fill="#7f7f7f" stroke="#7f7f7f" points="1111.91,-250.52 1115.48,-257.02 1116.75,-249.72 1111.91,-250.52"/>
</g>
<!-- base&#45;&gt;molgen -->
<g id="edge9" class="edge">
<title>base&#45;&gt;molgen</title>
<path fill="none" stroke="#7f7f7f" d="M1042.27,-265.4C947.56,-252.25 781.16,-229.07 638.62,-208.84 632.53,-207.97 626.26,-207.08 619.93,-206.18"/>
<polygon fill="#7f7f7f" stroke="#7f7f7f" points="1041.88,-267.82 1049.15,-266.35 1042.55,-262.96 1041.88,-267.82"/>
</g>
<!-- base&#45;&gt;bildgebung -->
<g id="edge12" class="edge">
<title>base&#45;&gt;bildgebung</title>
<path fill="none" stroke="#7f7f7f" d="M1194.34,-260.73C1197.81,-260.08 1201.25,-259.45 1204.62,-258.84 1317.75,-238.42 1448.76,-217.72 1532.83,-204.8"/>
<polygon fill="#7f7f7f" stroke="#7f7f7f" points="1194.09,-258.28 1187.67,-261.99 1195,-263.1 1194.09,-258.28"/>
</g>
<!-- base&#45;&gt;dokument -->
<g id="edge15" class="edge">
<title>base&#45;&gt;dokument</title>
<path fill="none" stroke="#7f7f7f" d="M1042.9,-259.1C978.18,-244.67 885.39,-223.98 819.72,-209.34"/>
<polygon fill="#7f7f7f" stroke="#7f7f7f" points="1042.2,-261.45 1049.57,-260.58 1043.27,-256.67 1042.2,-261.45"/>
</g>
<!-- base&#45;&gt;onko -->
<g id="edge18" class="edge">
<title>base&#45;&gt;onko</title>
<path fill="none" stroke="#7f7f7f" d="M1043.06,-257.61C1006.05,-246.68 961.79,-230.64 925.62,-208.84 886.15,-185.05 848.77,-145.45 829.07,-122.78"/>
<polygon fill="#7f7f7f" stroke="#7f7f7f" points="1041.98,-259.85 1049.39,-259.44 1043.35,-255.14 1041.98,-259.85"/>
</g>
<!-- base&#45;&gt;patho -->
<g id="edge24" class="edge">
<title>base&#45;&gt;patho</title>
<path fill="none" stroke="#7f7f7f" d="M1163.97,-254.36C1201.8,-233.54 1245.53,-201.1 1218.62,-172.56 1182.39,-134.13 415.08,-113.1 161.31,-107.18"/>
<polygon fill="#7f7f7f" stroke="#7f7f7f" points="1162.85,-252.18 1157.84,-257.64 1165.16,-256.49 1162.85,-252.18"/>
</g>
<!-- base&#45;&gt;seltene -->
<g id="edge27" class="edge">
<title>base&#45;&gt;seltene</title>
<path fill="none" stroke="#7f7f7f" d="M1173.03,-255.48C1205.49,-242.84 1247.33,-225.84 1283.62,-208.84 1342.73,-181.15 1409.43,-144.31 1447.21,-122.9"/>
<polygon fill="#7f7f7f" stroke="#7f7f7f" points="1172.46,-253.07 1166.82,-257.88 1174.23,-257.64 1172.46,-253.07"/>
</g>
<!-- base&#45;&gt;mtb -->
<g id="edge32" class="edge">
<title>base&#45;&gt;mtb</title>
<path fill="none" stroke="#7f7f7f" d="M1062.35,-254.96C1038.2,-243.92 1010.94,-228.55 990.62,-208.84 976.65,-195.28 915.88,-80.71 892.68,-36.47"/>
<polygon fill="#7f7f7f" stroke="#7f7f7f" points="1061.29,-257.17 1068.68,-257.77 1063.28,-252.69 1061.29,-257.17"/>
</g>
<!-- base&#45;&gt;kardiologie -->
<g id="edge40" class="edge">
<title>base&#45;&gt;kardiologie</title>
<path fill="none" stroke="#7f7f7f" d="M1182.18,-255.99C1259.83,-232.37 1395.57,-193.61 1514.62,-172.56 1738.79,-132.92 2007.31,-115.56 2140.01,-108.94"/>
<polygon fill="#7f7f7f" stroke="#7f7f7f" points="1181.82,-253.54 1175.84,-257.93 1183.25,-258.23 1181.82,-253.54"/>
</g>
<!-- base&#45;&gt;soziodemographie -->
<g id="edge43" class="edge">
<title>base&#45;&gt;soziodemographie</title>
<path fill="none" stroke="#7f7f7f" d="M1194.72,-276.98C1203.82,-276.98 1212.92,-276.98 1222.02,-276.98"/>
<polygon fill="#7f7f7f" stroke="#7f7f7f" points="1194.87,-274.53 1187.87,-276.98 1194.87,-279.43 1194.87,-274.53"/>
</g>
<!-- base&#45;&gt;lungenfunktion -->
<g id="edge45" class="edge">
<title>base&#45;&gt;lungenfunktion</title>
<path fill="none" stroke="#7f7f7f" d="M1194.84,-260.37C1198.14,-259.83 1201.41,-259.31 1204.62,-258.84 1434.32,-225 1494.19,-237.22 1724.62,-208.84 1730.29,-208.14 1736.1,-207.39 1741.96,-206.6"/>
<polygon fill="#7f7f7f" stroke="#7f7f7f" points="1194.56,-257.93 1188.08,-261.52 1195.39,-262.76 1194.56,-257.93"/>
</g>
<!-- mikrobio -->
<g id="node12" class="node">
<title>mikrobio</title>
<path fill="#fff3cd" stroke="black" d="M2730.25,-208.84C2730.25,-208.84 2575,-208.84 2575,-208.84 2569,-208.84 2563,-202.84 2563,-196.84 2563,-196.84 2563,-184.56 2563,-184.56 2563,-178.56 2569,-172.56 2575,-172.56 2575,-172.56 2730.25,-172.56 2730.25,-172.56 2736.25,-172.56 2742.25,-178.56 2742.25,-184.56 2742.25,-184.56 2742.25,-196.84 2742.25,-196.84 2742.25,-202.84 2736.25,-208.84 2730.25,-208.84"/>
<text xml:space="preserve" text-anchor="start" x="2581" y="-190.75" font-family="Helvetica,sans-Serif" font-size="11.00">Mikrobiologie 2027.0.0&#45;ballot2</text>
<text xml:space="preserve" text-anchor="start" x="2627.88" y="-182.6" font-family="Helvetica,sans-Serif" font-size="8.00">(finaler Ballot)</text>
</g>
<!-- labor&#45;&gt;mikrobio -->
<g id="edge16" class="edge">
<title>labor&#45;&gt;mikrobio</title>
<path fill="none" stroke="#7f7f7f" d="M2649.85,-250.21C2650.48,-236.9 2651.23,-221 2651.8,-209.14"/>
<polygon fill="#7f7f7f" stroke="#7f7f7f" points="2647.41,-249.9 2649.53,-257.01 2652.3,-250.13 2647.41,-249.9"/>
</g>
<!-- medikation&#45;&gt;bildgebung -->
<g id="edge13" class="edge">
<title>medikation&#45;&gt;bildgebung</title>
<path fill="none" stroke="#7f7f7f" d="M1840.4,-256.09C1791.63,-241.86 1726.61,-222.9 1679.78,-209.24"/>
<polygon fill="#7f7f7f" stroke="#7f7f7f" points="1839.53,-258.38 1846.94,-257.99 1840.91,-253.68 1839.53,-258.38"/>
</g>
<!-- medikation&#45;&gt;onko -->
<g id="edge20" class="edge">
<title>medikation&#45;&gt;onko</title>
<path fill="none" stroke="#7f7f7f" d="M1931.94,-252.43C1951.77,-229.58 1973.91,-195.14 1952.62,-172.56 1934.55,-153.39 1158.74,-119.64 898.63,-108.84"/>
<polygon fill="#7f7f7f" stroke="#7f7f7f" points="1930.31,-250.58 1927.46,-257.42 1933.96,-253.85 1930.31,-250.58"/>
</g>
<!-- medikation&#45;&gt;seltene -->
<g id="edge29" class="edge">
<title>medikation&#45;&gt;seltene</title>
<path fill="none" stroke="#7f7f7f" d="M1958.01,-254.85C1998.31,-234.71 2044.53,-203.02 2017.62,-172.56 1988.15,-139.19 1709.31,-118.56 1564.31,-110"/>
<polygon fill="#7f7f7f" stroke="#7f7f7f" points="1957.16,-252.54 1951.94,-257.81 1959.3,-256.95 1957.16,-252.54"/>
</g>
<!-- medikation&#45;&gt;mtb -->
<g id="edge34" class="edge">
<title>medikation&#45;&gt;mtb</title>
<path fill="none" stroke="#7f7f7f" d="M1975.67,-255.64C2025.02,-237.23 2078.85,-207.66 2049.62,-172.56 1979.08,-87.82 1197.49,-36.86 954.96,-23"/>
<polygon fill="#7f7f7f" stroke="#7f7f7f" points="1974.97,-253.29 1969.22,-257.98 1976.64,-257.89 1974.97,-253.29"/>
</g>
<!-- medikation&#45;&gt;lungenfunktion -->
<g id="edge46" class="edge">
<title>medikation&#45;&gt;lungenfunktion</title>
<path fill="none" stroke="#7f7f7f" d="M1888.79,-252.09C1877.43,-238.42 1863.43,-221.57 1853.11,-209.14"/>
<polygon fill="#7f7f7f" stroke="#7f7f7f" points="1886.8,-253.53 1893.15,-257.35 1890.57,-250.4 1886.8,-253.53"/>
</g>
<!-- biobank&#45;&gt;molgen -->
<g id="edge10" class="edge">
<title>biobank&#45;&gt;molgen</title>
<path fill="none" stroke="#7f7f7f" d="M301.9,-256.09C350,-241.86 414.12,-222.9 460.3,-209.24"/>
<polygon fill="#7f7f7f" stroke="#7f7f7f" points="301.49,-253.65 295.47,-257.99 302.88,-258.35 301.49,-253.65"/>
</g>
<!-- biobank&#45;&gt;onko -->
<g id="edge19" class="edge">
<title>biobank&#45;&gt;onko</title>
<path fill="none" stroke="#7f7f7f" d="M251.02,-251.82C268.97,-227.46 300.12,-190.91 336.62,-172.56 403.91,-138.72 612.37,-119.3 730.58,-110.74"/>
<polygon fill="#7f7f7f" stroke="#7f7f7f" points="249.09,-250.31 246.98,-257.42 253.06,-253.17 249.09,-250.31"/>
</g>
<!-- biobank&#45;&gt;patho -->
<g id="edge25" class="edge">
<title>biobank&#45;&gt;patho</title>
<path fill="none" stroke="#7f7f7f" d="M213.19,-252.24C181.85,-217.53 124.23,-153.71 96.44,-122.93"/>
<polygon fill="#7f7f7f" stroke="#7f7f7f" points="211.2,-253.69 217.71,-257.25 214.84,-250.41 211.2,-253.69"/>
</g>
<!-- biobank&#45;&gt;mtb -->
<g id="edge33" class="edge">
<title>biobank&#45;&gt;mtb</title>
<path fill="none" stroke="#7f7f7f" d="M239.39,-250.35C245.12,-226.73 257.08,-192.42 280.62,-172.56 361.34,-104.48 670.44,-50.91 812.03,-29.39"/>
<polygon fill="#7f7f7f" stroke="#7f7f7f" points="237.03,-249.68 237.88,-257.05 241.81,-250.76 237.03,-249.68"/>
</g>
<!-- studie&#45;&gt;onko -->
<g id="edge22" class="edge">
<title>studie&#45;&gt;onko</title>
<path fill="none" stroke="#7f7f7f" d="M2206.74,-254.77C2155.74,-230.08 2066.27,-190.42 1984.62,-172.56 1879.47,-149.56 1148.63,-118.7 898.42,-108.7"/>
<polygon fill="#7f7f7f" stroke="#7f7f7f" points="2205.56,-256.92 2212.93,-257.78 2207.71,-252.51 2205.56,-256.92"/>
</g>
<!-- studie&#45;&gt;seltene -->
<g id="edge30" class="edge">
<title>studie&#45;&gt;seltene</title>
<path fill="none" stroke="#7f7f7f" d="M2254.62,-250.41C2258.48,-226.83 2259.59,-192.55 2239.62,-172.56 2192.7,-125.58 1754.01,-111.03 1564.32,-106.91"/>
<polygon fill="#7f7f7f" stroke="#7f7f7f" points="2252.25,-249.75 2253.38,-257.08 2257.07,-250.64 2252.25,-249.75"/>
</g>
<!-- studie&#45;&gt;mtb -->
<g id="edge38" class="edge">
<title>studie&#45;&gt;mtb</title>
<path fill="none" stroke="#7f7f7f" d="M2271.8,-252.49C2307.75,-213.28 2368.27,-134.1 2322.62,-86.28 2274.98,-36.36 1239.51,-22.61 955.25,-19.77"/>
<polygon fill="#7f7f7f" stroke="#7f7f7f" points="2270.28,-250.53 2267.3,-257.32 2273.86,-253.87 2270.28,-250.53"/>
</g>
<!-- molgen&#45;&gt;onko -->
<g id="edge21" class="edge">
<title>molgen&#45;&gt;onko</title>
<path fill="none" stroke="#7f7f7f" d="M589.25,-169.81C638.94,-155.61 705.18,-136.69 752.97,-123.04"/>
<polygon fill="#7f7f7f" stroke="#7f7f7f" points="588.62,-167.44 582.56,-171.72 589.97,-172.15 588.62,-167.44"/>
</g>
<!-- molgen&#45;&gt;seltene -->
<g id="edge28" class="edge">
<title>molgen&#45;&gt;seltene</title>
<path fill="none" stroke="#7f7f7f" d="M628.63,-173.72C632,-173.32 635.34,-172.93 638.62,-172.56 912.73,-141.88 1238.73,-119.94 1391.1,-110.53"/>
<polygon fill="#7f7f7f" stroke="#7f7f7f" points="628.35,-171.29 621.7,-174.57 628.95,-176.15 628.35,-171.29"/>
</g>
<!-- molgen&#45;&gt;mtb -->
<g id="edge35" class="edge">
<title>molgen&#45;&gt;mtb</title>
<path fill="none" stroke="#7f7f7f" d="M557.18,-167.87C595.59,-145.95 657.31,-111.85 712.62,-86.28 752.87,-67.68 799.82,-49.48 834.34,-36.74"/>
<polygon fill="#7f7f7f" stroke="#7f7f7f" points="555.98,-165.73 551.13,-171.34 558.42,-169.98 555.98,-165.73"/>
</g>
<!-- onko&#45;&gt;mtb -->
<g id="edge36" class="edge">
<title>onko&#45;&gt;mtb</title>
<path fill="none" stroke="#7f7f7f" d="M834.18,-79.53C845.38,-65.86 859.17,-49.01 869.35,-36.58"/>
<polygon fill="#7f7f7f" stroke="#7f7f7f" points="832.42,-77.82 829.88,-84.79 836.21,-80.92 832.42,-77.82"/>
</g>
<!-- patho&#45;&gt;mtb -->
<g id="edge37" class="edge">
<title>patho&#45;&gt;mtb</title>
<path fill="none" stroke="#7f7f7f" d="M169.74,-88.84C176.12,-87.93 182.47,-87.07 188.62,-86.28 415.59,-57.33 685.69,-34.57 811.93,-24.61"/>
<polygon fill="#7f7f7f" stroke="#7f7f7f" points="169.71,-86.37 163.13,-89.8 170.41,-91.22 169.71,-86.37"/>
</g>
<!-- consent -->
<g id="node17" class="node">
<title>consent</title>
<path fill="#fff3cd" stroke="black" d="M3291,-295.12C3291,-295.12 3164.25,-295.12 3164.25,-295.12 3158.25,-295.12 3152.25,-289.12 3152.25,-283.12 3152.25,-283.12 3152.25,-270.84 3152.25,-270.84 3152.25,-264.84 3158.25,-258.84 3164.25,-258.84 3164.25,-258.84 3291,-258.84 3291,-258.84 3297,-258.84 3303,-264.84 3303,-270.84 3303,-270.84 3303,-283.12 3303,-283.12 3303,-289.12 3297,-295.12 3291,-295.12"/>
<text xml:space="preserve" text-anchor="start" x="3170.25" y="-277.03" font-family="Helvetica,sans-Serif" font-size="11.00">Consent 2027.0.0&#45;ballot</text>
<text xml:space="preserve" text-anchor="start" x="3202.88" y="-268.88" font-family="Helvetica,sans-Serif" font-size="8.00">(finaler Ballot)</text>
</g>
<!-- soziodem -->
<g id="node22" class="node">
<title>soziodem</title>
<path fill="#e2e3e5" stroke="#999999" d="M1863.25,-389.4C1863.25,-389.4 1750,-389.4 1750,-389.4 1744,-389.4 1738,-383.4 1738,-377.4 1738,-377.4 1738,-357.12 1738,-357.12 1738,-351.12 1744,-345.12 1750,-345.12 1750,-345.12 1863.25,-345.12 1863.25,-345.12 1869.25,-345.12 1875.25,-351.12 1875.25,-357.12 1875.25,-357.12 1875.25,-377.4 1875.25,-377.4 1875.25,-383.4 1869.25,-389.4 1863.25,-389.4"/>
<text xml:space="preserve" text-anchor="start" x="1761.62" y="-371.31" font-family="Helvetica,sans-Serif" font-size="11.00" fill="#4d4d4d">Soziodemographie</text>
<text xml:space="preserve" text-anchor="start" x="1756" y="-363.16" font-family="Helvetica,sans-Serif" font-size="8.00" fill="#4d4d4d">2027.0.0&#45;ballot.rc1 im Repo,</text>
<text xml:space="preserve" text-anchor="start" x="1775.88" y="-355.16" font-family="Helvetica,sans-Serif" font-size="8.00" fill="#4d4d4d">in keiner Registry</text>
</g>
</g>
</svg>
