<?xml version="1.0" encoding="UTF-8" standalone="no"?>
<!DOCTYPE svg PUBLIC "-//W3C//DTD SVG 1.1//EN"
 "http://www.w3.org/Graphics/SVG/1.1/DTD/svg11.dtd">
<!-- Generated by graphviz version 14.0.2 (20251019.1705)
 -->
<!-- Title: MII_KDS_2026 Pages: 1 -->
<svg width="2058pt" height="447pt"
 viewBox="0.00 0.00 2058.00 447.00" xmlns="http://www.w3.org/2000/svg" xmlns:xlink="http://www.w3.org/1999/xlink">
<g id="graph0" class="graph" transform="scale(1 1) rotate(0) translate(4 443.4)">
<title>MII_KDS_2026</title>
<polygon fill="white" stroke="none" points="-4,4 -4,-443.4 2053.5,-443.4 2053.5,4 -4,4"/>
<text xml:space="preserve" text-anchor="start" x="893.88" y="-422.15" font-family="Helvetica,sans-Serif" font-weight="bold" font-size="15.00">MII KDS 2026 — Abhängigkeitsgraph</text>
<text xml:space="preserve" text-anchor="start" x="884.5" y="-411.9" font-family="Helvetica,sans-Serif" font-size="10.00">Pfeil = „hängt ab von&quot; · Nur MII&#45;interne Deps · Stand 2026&#45;03&#45;30</text>
<g id="clust1" class="cluster">
<title>cluster_nonfinal</title>
<polygon fill="#f8f9fa" stroke="#999999" stroke-dasharray="5,2" points="1651.5,-174.56 1651.5,-251.09 2041.5,-251.09 2041.5,-174.56 1651.5,-174.56"/>
<text xml:space="preserve" text-anchor="start" x="1811.62" y="-238.59" font-family="Helvetica,sans-Serif" font-weight="bold" font-size="10.00">In Entwicklung</text>
</g>
<!-- meta -->
<g id="node1" class="node">
<title>meta</title>
<path fill="#d4edda" stroke="black" d="M1021.5,-406.4C1021.5,-406.4 967.5,-406.4 967.5,-406.4 961.5,-406.4 955.5,-400.4 955.5,-394.4 955.5,-394.4 955.5,-377.12 955.5,-377.12 955.5,-371.12 961.5,-365.12 967.5,-365.12 967.5,-365.12 1021.5,-365.12 1021.5,-365.12 1027.5,-365.12 1033.5,-371.12 1033.5,-377.12 1033.5,-377.12 1033.5,-394.4 1033.5,-394.4 1033.5,-400.4 1027.5,-406.4 1021.5,-406.4"/>
<text xml:space="preserve" text-anchor="middle" x="994.5" y="-387.31" font-family="Helvetica,sans-Serif" font-size="11.00">Meta</text>
<text xml:space="preserve" text-anchor="middle" x="994.5" y="-375.31" font-family="Helvetica,sans-Serif" font-size="11.00">2026.0.0</text>
</g>
<!-- base -->
<g id="node2" class="node">
<title>base</title>
<path fill="#d4edda" stroke="black" d="M739.75,-312.62C739.75,-312.62 603.25,-312.62 603.25,-312.62 597.25,-312.62 591.25,-306.62 591.25,-300.62 591.25,-300.62 591.25,-288.34 591.25,-288.34 591.25,-282.34 597.25,-276.34 603.25,-276.34 603.25,-276.34 739.75,-276.34 739.75,-276.34 745.75,-276.34 751.75,-282.34 751.75,-288.34 751.75,-288.34 751.75,-300.62 751.75,-300.62 751.75,-306.62 745.75,-312.62 739.75,-312.62"/>
<text xml:space="preserve" text-anchor="start" x="636.62" y="-294.53" font-family="Helvetica,sans-Serif" font-size="11.00">Base 2026.0.0</text>
<text xml:space="preserve" text-anchor="start" x="609.25" y="-286.38" font-family="Helvetica,sans-Serif" font-size="8.00">(Person, Fall, Diagnose, Prozedur)</text>
</g>
<!-- meta&#45;&gt;base -->
<g id="edge1" class="edge">
<title>meta&#45;&gt;base</title>
<path fill="none" stroke="#7f7f7f" d="M947.23,-371.69C891.21,-356.21 797.61,-330.34 735.23,-313.09"/>
<polygon fill="#7f7f7f" stroke="#7f7f7f" points="946.36,-373.99 953.76,-373.5 947.66,-369.27 946.36,-373.99"/>
</g>
<!-- labor -->
<g id="node3" class="node">
<title>labor</title>
<path fill="#d4edda" stroke="black" d="M1730.5,-315.12C1730.5,-315.12 1676.5,-315.12 1676.5,-315.12 1670.5,-315.12 1664.5,-309.12 1664.5,-303.12 1664.5,-303.12 1664.5,-285.84 1664.5,-285.84 1664.5,-279.84 1670.5,-273.84 1676.5,-273.84 1676.5,-273.84 1730.5,-273.84 1730.5,-273.84 1736.5,-273.84 1742.5,-279.84 1742.5,-285.84 1742.5,-285.84 1742.5,-303.12 1742.5,-303.12 1742.5,-309.12 1736.5,-315.12 1730.5,-315.12"/>
<text xml:space="preserve" text-anchor="middle" x="1703.5" y="-296.03" font-family="Helvetica,sans-Serif" font-size="11.00">Labor</text>
<text xml:space="preserve" text-anchor="middle" x="1703.5" y="-284.03" font-family="Helvetica,sans-Serif" font-size="11.00">2026.0.1</text>
</g>
<!-- meta&#45;&gt;labor -->
<g id="edge2" class="edge">
<title>meta&#45;&gt;labor</title>
<path fill="none" stroke="#7f7f7f" d="M1041.96,-382.2C1148.42,-375.89 1414.08,-356.97 1632.5,-315.12 1642.93,-313.12 1654.05,-310.36 1664.33,-307.53"/>
<polygon fill="#7f7f7f" stroke="#7f7f7f" points="1042.02,-379.74 1035.17,-382.6 1042.31,-384.64 1042.02,-379.74"/>
</g>
<!-- medikation -->
<g id="node4" class="node">
<title>medikation</title>
<path fill="#d4edda" stroke="black" d="M1125.38,-315.12C1125.38,-315.12 1061.62,-315.12 1061.62,-315.12 1055.62,-315.12 1049.62,-309.12 1049.62,-303.12 1049.62,-303.12 1049.62,-285.84 1049.62,-285.84 1049.62,-279.84 1055.62,-273.84 1061.62,-273.84 1061.62,-273.84 1125.38,-273.84 1125.38,-273.84 1131.38,-273.84 1137.38,-279.84 1137.38,-285.84 1137.38,-285.84 1137.38,-303.12 1137.38,-303.12 1137.38,-309.12 1131.38,-315.12 1125.38,-315.12"/>
<text xml:space="preserve" text-anchor="middle" x="1093.5" y="-296.03" font-family="Helvetica,sans-Serif" font-size="11.00">Medikation</text>
<text xml:space="preserve" text-anchor="middle" x="1093.5" y="-284.03" font-family="Helvetica,sans-Serif" font-size="11.00">2026.0.1</text>
</g>
<!-- meta&#45;&gt;medikation -->
<g id="edge3" class="edge">
<title>meta&#45;&gt;medikation</title>
<path fill="none" stroke="#7f7f7f" d="M1022.42,-359.58C1037.87,-345.65 1056.81,-328.57 1071.25,-315.55"/>
<polygon fill="#7f7f7f" stroke="#7f7f7f" points="1021.15,-357.42 1017.6,-363.93 1024.43,-361.06 1021.15,-357.42"/>
</g>
<!-- biobank -->
<g id="node5" class="node">
<title>biobank</title>
<path fill="#d4edda" stroke="black" d="M267.5,-315.12C267.5,-315.12 213.5,-315.12 213.5,-315.12 207.5,-315.12 201.5,-309.12 201.5,-303.12 201.5,-303.12 201.5,-285.84 201.5,-285.84 201.5,-279.84 207.5,-273.84 213.5,-273.84 213.5,-273.84 267.5,-273.84 267.5,-273.84 273.5,-273.84 279.5,-279.84 279.5,-285.84 279.5,-285.84 279.5,-303.12 279.5,-303.12 279.5,-309.12 273.5,-315.12 267.5,-315.12"/>
<text xml:space="preserve" text-anchor="middle" x="240.5" y="-296.03" font-family="Helvetica,sans-Serif" font-size="11.00">Biobank</text>
<text xml:space="preserve" text-anchor="middle" x="240.5" y="-284.03" font-family="Helvetica,sans-Serif" font-size="11.00">2026.0.1</text>
</g>
<!-- meta&#45;&gt;biobank -->
<g id="edge4" class="edge">
<title>meta&#45;&gt;biobank</title>
<path fill="none" stroke="#7f7f7f" d="M946.65,-379.09C807.81,-362.65 406.65,-315.15 279.59,-300.11"/>
<polygon fill="#7f7f7f" stroke="#7f7f7f" points="946.28,-381.52 953.52,-379.91 946.86,-376.65 946.28,-381.52"/>
</g>
<!-- studie -->
<g id="node6" class="node">
<title>studie</title>
<path fill="#d4edda" stroke="black" d="M1456.5,-315.12C1456.5,-315.12 1402.5,-315.12 1402.5,-315.12 1396.5,-315.12 1390.5,-309.12 1390.5,-303.12 1390.5,-303.12 1390.5,-285.84 1390.5,-285.84 1390.5,-279.84 1396.5,-273.84 1402.5,-273.84 1402.5,-273.84 1456.5,-273.84 1456.5,-273.84 1462.5,-273.84 1468.5,-279.84 1468.5,-285.84 1468.5,-285.84 1468.5,-303.12 1468.5,-303.12 1468.5,-309.12 1462.5,-315.12 1456.5,-315.12"/>
<text xml:space="preserve" text-anchor="middle" x="1429.5" y="-296.03" font-family="Helvetica,sans-Serif" font-size="11.00">Studie</text>
<text xml:space="preserve" text-anchor="middle" x="1429.5" y="-284.03" font-family="Helvetica,sans-Serif" font-size="11.00">2026.0.2</text>
</g>
<!-- meta&#45;&gt;studie -->
<g id="edge5" class="edge">
<title>meta&#45;&gt;studie</title>
<path fill="none" stroke="#7f7f7f" d="M1041.91,-375.22C1107.96,-361.9 1231.38,-336.92 1336.5,-315.12 1354.11,-311.47 1373.59,-307.36 1390.14,-303.86"/>
<polygon fill="#7f7f7f" stroke="#7f7f7f" points="1041.62,-372.78 1035.24,-376.56 1042.59,-377.58 1041.62,-372.78"/>
</g>
<!-- pros -->
<g id="node7" class="node">
<title>pros</title>
<path fill="#d4edda" stroke="black" d="M853.5,-315.12C853.5,-315.12 799.5,-315.12 799.5,-315.12 793.5,-315.12 787.5,-309.12 787.5,-303.12 787.5,-303.12 787.5,-285.84 787.5,-285.84 787.5,-279.84 793.5,-273.84 799.5,-273.84 799.5,-273.84 853.5,-273.84 853.5,-273.84 859.5,-273.84 865.5,-279.84 865.5,-285.84 865.5,-285.84 865.5,-303.12 865.5,-303.12 865.5,-309.12 859.5,-315.12 853.5,-315.12"/>
<text xml:space="preserve" text-anchor="middle" x="826.5" y="-296.03" font-family="Helvetica,sans-Serif" font-size="11.00">PROs</text>
<text xml:space="preserve" text-anchor="middle" x="826.5" y="-284.03" font-family="Helvetica,sans-Serif" font-size="11.00">2026.0.1</text>
</g>
<!-- meta&#45;&gt;pros -->
<g id="edge6" class="edge">
<title>meta&#45;&gt;pros</title>
<path fill="none" stroke="#7f7f7f" d="M949.49,-360.84C922.89,-346.71 889.6,-329.02 864.37,-315.6"/>
<polygon fill="#7f7f7f" stroke="#7f7f7f" points="948.13,-362.89 955.46,-364.01 950.43,-358.57 948.13,-362.89"/>
</g>
<!-- molgen -->
<g id="node9" class="node">
<title>molgen</title>
<path fill="#d4edda" stroke="black" d="M819.5,-223.84C819.5,-223.84 765.5,-223.84 765.5,-223.84 759.5,-223.84 753.5,-217.84 753.5,-211.84 753.5,-211.84 753.5,-194.56 753.5,-194.56 753.5,-188.56 759.5,-182.56 765.5,-182.56 765.5,-182.56 819.5,-182.56 819.5,-182.56 825.5,-182.56 831.5,-188.56 831.5,-194.56 831.5,-194.56 831.5,-211.84 831.5,-211.84 831.5,-217.84 825.5,-223.84 819.5,-223.84"/>
<text xml:space="preserve" text-anchor="middle" x="792.5" y="-204.75" font-family="Helvetica,sans-Serif" font-size="11.00">MolGen</text>
<text xml:space="preserve" text-anchor="middle" x="792.5" y="-192.75" font-family="Helvetica,sans-Serif" font-size="11.00">2026.0.4</text>
</g>
<!-- meta&#45;&gt;molgen -->
<g id="edge8" class="edge">
<title>meta&#45;&gt;molgen</title>
<path fill="none" stroke="#7f7f7f" d="M970.41,-358.81C948.52,-335.69 914.92,-301.35 883.5,-273.84 863.29,-256.15 839.09,-237.75 820.73,-224.31"/>
<polygon fill="#7f7f7f" stroke="#7f7f7f" points="968.37,-360.22 974.95,-363.63 971.93,-356.85 968.37,-360.22"/>
</g>
<!-- bildgebung -->
<g id="node10" class="node">
<title>bildgebung</title>
<path fill="#d4edda" stroke="black" d="M1019.5,-223.84C1019.5,-223.84 953.5,-223.84 953.5,-223.84 947.5,-223.84 941.5,-217.84 941.5,-211.84 941.5,-211.84 941.5,-194.56 941.5,-194.56 941.5,-188.56 947.5,-182.56 953.5,-182.56 953.5,-182.56 1019.5,-182.56 1019.5,-182.56 1025.5,-182.56 1031.5,-188.56 1031.5,-194.56 1031.5,-194.56 1031.5,-211.84 1031.5,-211.84 1031.5,-217.84 1025.5,-223.84 1019.5,-223.84"/>
<text xml:space="preserve" text-anchor="middle" x="986.5" y="-204.75" font-family="Helvetica,sans-Serif" font-size="11.00">Bildgebung</text>
<text xml:space="preserve" text-anchor="middle" x="986.5" y="-192.75" font-family="Helvetica,sans-Serif" font-size="11.00">2026.0.0</text>
</g>
<!-- meta&#45;&gt;bildgebung -->
<g id="edge11" class="edge">
<title>meta&#45;&gt;bildgebung</title>
<path fill="none" stroke="#7f7f7f" d="M993.25,-356.45C991.62,-319.7 988.82,-256.49 987.39,-224.3"/>
<polygon fill="#7f7f7f" stroke="#7f7f7f" points="990.79,-356.35 993.55,-363.23 995.68,-356.13 990.79,-356.35"/>
</g>
<!-- dokument -->
<g id="node11" class="node">
<title>dokument</title>
<path fill="#d4edda" stroke="black" d="M369.25,-223.84C369.25,-223.84 307.75,-223.84 307.75,-223.84 301.75,-223.84 295.75,-217.84 295.75,-211.84 295.75,-211.84 295.75,-194.56 295.75,-194.56 295.75,-188.56 301.75,-182.56 307.75,-182.56 307.75,-182.56 369.25,-182.56 369.25,-182.56 375.25,-182.56 381.25,-188.56 381.25,-194.56 381.25,-194.56 381.25,-211.84 381.25,-211.84 381.25,-217.84 375.25,-223.84 369.25,-223.84"/>
<text xml:space="preserve" text-anchor="middle" x="338.5" y="-204.75" font-family="Helvetica,sans-Serif" font-size="11.00">Dokument</text>
<text xml:space="preserve" text-anchor="middle" x="338.5" y="-192.75" font-family="Helvetica,sans-Serif" font-size="11.00">2026.0.1</text>
</g>
<!-- meta&#45;&gt;dokument -->
<g id="edge14" class="edge">
<title>meta&#45;&gt;dokument</title>
<path fill="none" stroke="#7f7f7f" d="M946.89,-379.6C868.29,-370.48 706.81,-349.2 573.5,-315.12 490.02,-293.78 464.62,-295.03 390.5,-251.09 378.16,-243.77 366.15,-233.24 356.78,-224.01"/>
<polygon fill="#7f7f7f" stroke="#7f7f7f" points="946.41,-382.01 953.64,-380.38 946.97,-377.14 946.41,-382.01"/>
</g>
<!-- onko -->
<g id="node12" class="node">
<title>onko</title>
<path fill="#d4edda" stroke="black" d="M919.5,-132.56C919.5,-132.56 859.5,-132.56 859.5,-132.56 853.5,-132.56 847.5,-126.56 847.5,-120.56 847.5,-120.56 847.5,-103.28 847.5,-103.28 847.5,-97.28 853.5,-91.28 859.5,-91.28 859.5,-91.28 919.5,-91.28 919.5,-91.28 925.5,-91.28 931.5,-97.28 931.5,-103.28 931.5,-103.28 931.5,-120.56 931.5,-120.56 931.5,-126.56 925.5,-132.56 919.5,-132.56"/>
<text xml:space="preserve" text-anchor="middle" x="889.5" y="-113.47" font-family="Helvetica,sans-Serif" font-size="11.00">Onkologie</text>
<text xml:space="preserve" text-anchor="middle" x="889.5" y="-101.47" font-family="Helvetica,sans-Serif" font-size="11.00">2026.0.3</text>
</g>
<!-- meta&#45;&gt;onko -->
<g id="edge16" class="edge">
<title>meta&#45;&gt;onko</title>
<path fill="none" stroke="#7f7f7f" d="M1042.15,-378.34C1079.99,-370.46 1130.55,-353.1 1155.5,-315.12 1171.39,-290.93 1173.7,-205.15 1147.5,-174.56 1119.82,-142.25 997.72,-124.47 931.9,-117.08"/>
<polygon fill="#7f7f7f" stroke="#7f7f7f" points="1041.68,-375.94 1035.28,-379.68 1042.62,-380.75 1041.68,-375.94"/>
</g>
<!-- patho -->
<g id="node13" class="node">
<title>patho</title>
<path fill="#d4edda" stroke="black" d="M75,-132.56C75,-132.56 12,-132.56 12,-132.56 6,-132.56 0,-126.56 0,-120.56 0,-120.56 0,-103.28 0,-103.28 0,-97.28 6,-91.28 12,-91.28 12,-91.28 75,-91.28 75,-91.28 81,-91.28 87,-97.28 87,-103.28 87,-103.28 87,-120.56 87,-120.56 87,-126.56 81,-132.56 75,-132.56"/>
<text xml:space="preserve" text-anchor="middle" x="43.5" y="-113.47" font-family="Helvetica,sans-Serif" font-size="11.00">Pathologie</text>
<text xml:space="preserve" text-anchor="middle" x="43.5" y="-101.47" font-family="Helvetica,sans-Serif" font-size="11.00">2026.0.1</text>
</g>
<!-- meta&#45;&gt;patho -->
<g id="edge22" class="edge">
<title>meta&#45;&gt;patho</title>
<path fill="none" stroke="#7f7f7f" d="M946.92,-383.89C792.85,-380.58 309.07,-366.29 162.5,-315.12 114.08,-298.22 94.34,-294.16 66.5,-251.09 42.87,-214.53 41.04,-161.55 42.08,-132.98"/>
<polygon fill="#7f7f7f" stroke="#7f7f7f" points="946.74,-386.34 953.79,-384.03 946.84,-381.44 946.74,-386.34"/>
</g>
<!-- seltene -->
<g id="node14" class="node">
<title>seltene</title>
<path fill="#d4edda" stroke="black" d="M720.62,-132.56C720.62,-132.56 646.38,-132.56 646.38,-132.56 640.38,-132.56 634.38,-126.56 634.38,-120.56 634.38,-120.56 634.38,-103.28 634.38,-103.28 634.38,-97.28 640.38,-91.28 646.38,-91.28 646.38,-91.28 720.62,-91.28 720.62,-91.28 726.62,-91.28 732.62,-97.28 732.62,-103.28 732.62,-103.28 732.62,-120.56 732.62,-120.56 732.62,-126.56 726.62,-132.56 720.62,-132.56"/>
<text xml:space="preserve" text-anchor="middle" x="683.5" y="-113.47" font-family="Helvetica,sans-Serif" font-size="11.00">Seltene Erkr.</text>
<text xml:space="preserve" text-anchor="middle" x="683.5" y="-101.47" font-family="Helvetica,sans-Serif" font-size="11.00">2026.0.1</text>
</g>
<!-- meta&#45;&gt;seltene -->
<g id="edge25" class="edge">
<title>meta&#45;&gt;seltene</title>
<path fill="none" stroke="#7f7f7f" d="M947.01,-384.33C781.21,-382.35 235.3,-371.56 183.5,-315.12 145.21,-273.4 205.3,-194.7 233.5,-174.56 296.95,-129.25 530.89,-117.16 634.06,-114"/>
<polygon fill="#7f7f7f" stroke="#7f7f7f" points="946.54,-386.78 953.56,-384.41 946.59,-381.88 946.54,-386.78"/>
</g>
<!-- mtb -->
<g id="node15" class="node">
<title>mtb</title>
<path fill="#d4edda" stroke="black" d="M867.5,-41.28C867.5,-41.28 813.5,-41.28 813.5,-41.28 807.5,-41.28 801.5,-35.28 801.5,-29.28 801.5,-29.28 801.5,-12 801.5,-12 801.5,-6 807.5,0 813.5,0 813.5,0 867.5,0 867.5,0 873.5,0 879.5,-6 879.5,-12 879.5,-12 879.5,-29.28 879.5,-29.28 879.5,-35.28 873.5,-41.28 867.5,-41.28"/>
<text xml:space="preserve" text-anchor="middle" x="840.5" y="-22.19" font-family="Helvetica,sans-Serif" font-size="11.00">MTB</text>
<text xml:space="preserve" text-anchor="middle" x="840.5" y="-10.19" font-family="Helvetica,sans-Serif" font-size="11.00">2026.0.1</text>
</g>
<!-- meta&#45;&gt;mtb -->
<g id="edge31" class="edge">
<title>meta&#45;&gt;mtb</title>
<path fill="none" stroke="#7f7f7f" d="M1042.12,-385.55C1154.12,-386.27 1429.17,-381.14 1486.5,-315.12 1498.53,-301.27 1490.3,-291.79 1486.5,-273.84 1462.12,-158.64 1405.81,-129.7 1294.5,-91.28 1147.14,-40.41 960.08,-26.62 879.89,-22.95"/>
<polygon fill="#7f7f7f" stroke="#7f7f7f" points="1042.23,-383.1 1035.21,-385.49 1042.19,-388 1042.23,-383.1"/>
</g>
<!-- kardiologie -->
<g id="node17" class="node">
<title>kardiologie</title>
<path fill="#e2e3e5" stroke="#999999" d="M1873.5,-223.84C1873.5,-223.84 1807.5,-223.84 1807.5,-223.84 1801.5,-223.84 1795.5,-217.84 1795.5,-211.84 1795.5,-211.84 1795.5,-194.56 1795.5,-194.56 1795.5,-188.56 1801.5,-182.56 1807.5,-182.56 1807.5,-182.56 1873.5,-182.56 1873.5,-182.56 1879.5,-182.56 1885.5,-188.56 1885.5,-194.56 1885.5,-194.56 1885.5,-211.84 1885.5,-211.84 1885.5,-217.84 1879.5,-223.84 1873.5,-223.84"/>
<text xml:space="preserve" text-anchor="middle" x="1840.5" y="-204.75" font-family="Helvetica,sans-Serif" font-size="11.00" fill="#4d4d4d">Kardiologie</text>
<text xml:space="preserve" text-anchor="middle" x="1840.5" y="-192.75" font-family="Helvetica,sans-Serif" font-size="11.00" fill="#4d4d4d">(alpha)</text>
</g>
<!-- meta&#45;&gt;kardiologie -->
<g id="edge40" class="edge">
<title>meta&#45;&gt;kardiologie</title>
<path fill="none" stroke="#b3b3b3" stroke-width="0.8" stroke-dasharray="5,2" d="M1042.02,-382.72C1199.54,-375.66 1698.11,-350.7 1760.5,-315.12 1796.59,-294.54 1820.72,-250.26 1832.38,-224.3"/>
<polygon fill="#b3b3b3" stroke="#b3b3b3" stroke-width="0.8" points="1041.99,-380.27 1035.11,-383.03 1042.21,-385.17 1041.99,-380.27"/>
</g>
<!-- lungenfunktion -->
<g id="node18" class="node">
<title>lungenfunktion</title>
<path fill="#e2e3e5" stroke="#999999" d="M2021.38,-223.84C2021.38,-223.84 1933.62,-223.84 1933.62,-223.84 1927.62,-223.84 1921.62,-217.84 1921.62,-211.84 1921.62,-211.84 1921.62,-194.56 1921.62,-194.56 1921.62,-188.56 1927.62,-182.56 1933.62,-182.56 1933.62,-182.56 2021.38,-182.56 2021.38,-182.56 2027.38,-182.56 2033.38,-188.56 2033.38,-194.56 2033.38,-194.56 2033.38,-211.84 2033.38,-211.84 2033.38,-217.84 2027.38,-223.84 2021.38,-223.84"/>
<text xml:space="preserve" text-anchor="middle" x="1977.5" y="-204.75" font-family="Helvetica,sans-Serif" font-size="11.00" fill="#4d4d4d">Lungenfunktion</text>
<text xml:space="preserve" text-anchor="middle" x="1977.5" y="-192.75" font-family="Helvetica,sans-Serif" font-size="11.00" fill="#4d4d4d">(nicht publiziert)</text>
</g>
<!-- meta&#45;&gt;lungenfunktion -->
<g id="edge41" class="edge">
<title>meta&#45;&gt;lungenfunktion</title>
<path fill="none" stroke="#b3b3b3" stroke-width="0.8" stroke-dasharray="5,2" d="M1041.69,-383.77C1193.23,-380.14 1666.02,-364.97 1809.5,-315.12 1867.44,-294.99 1924.89,-250.33 1955.3,-224.23"/>
<polygon fill="#b3b3b3" stroke="#b3b3b3" stroke-width="0.8" points="1042.02,-381.32 1035.08,-383.93 1042.13,-386.21 1042.02,-381.32"/>
</g>
<!-- icu -->
<g id="node8" class="node">
<title>icu</title>
<path fill="#d4edda" stroke="black" d="M705.5,-223.84C705.5,-223.84 651.5,-223.84 651.5,-223.84 645.5,-223.84 639.5,-217.84 639.5,-211.84 639.5,-211.84 639.5,-194.56 639.5,-194.56 639.5,-188.56 645.5,-182.56 651.5,-182.56 651.5,-182.56 705.5,-182.56 705.5,-182.56 711.5,-182.56 717.5,-188.56 717.5,-194.56 717.5,-194.56 717.5,-211.84 717.5,-211.84 717.5,-217.84 711.5,-223.84 705.5,-223.84"/>
<text xml:space="preserve" text-anchor="middle" x="678.5" y="-204.75" font-family="Helvetica,sans-Serif" font-size="11.00">ICU</text>
<text xml:space="preserve" text-anchor="middle" x="678.5" y="-192.75" font-family="Helvetica,sans-Serif" font-size="11.00">2026.0.2</text>
</g>
<!-- base&#45;&gt;icu -->
<g id="edge7" class="edge">
<title>base&#45;&gt;icu</title>
<path fill="none" stroke="#7f7f7f" d="M673.52,-267.69C674.6,-253.88 675.92,-237.12 676.92,-224.3"/>
<polygon fill="#7f7f7f" stroke="#7f7f7f" points="671.11,-267.16 673,-274.33 675.99,-267.55 671.11,-267.16"/>
</g>
<!-- base&#45;&gt;molgen -->
<g id="edge9" class="edge">
<title>base&#45;&gt;molgen</title>
<path fill="none" stroke="#7f7f7f" d="M706.19,-271.44C715.82,-265.07 726.19,-257.98 735.5,-251.09 746.94,-242.63 759.17,-232.69 769.36,-224.15"/>
<polygon fill="#7f7f7f" stroke="#7f7f7f" points="705.11,-269.22 700.6,-275.11 707.8,-273.32 705.11,-269.22"/>
</g>
<!-- base&#45;&gt;bildgebung -->
<g id="edge12" class="edge">
<title>base&#45;&gt;bildgebung</title>
<path fill="none" stroke="#7f7f7f" d="M760.39,-275.5C763.46,-274.93 766.51,-274.37 769.5,-273.84 833.72,-262.37 853.6,-274.46 914.5,-251.09 931.35,-244.62 948.36,-233.79 961.61,-224.17"/>
<polygon fill="#7f7f7f" stroke="#7f7f7f" points="760.12,-273.05 753.69,-276.75 761.02,-277.87 760.12,-273.05"/>
</g>
<!-- base&#45;&gt;dokument -->
<g id="edge15" class="edge">
<title>base&#45;&gt;dokument</title>
<path fill="none" stroke="#7f7f7f" d="M582.64,-288.68C530.46,-283.55 464.06,-272.96 408.5,-251.09 392.03,-244.61 375.49,-233.78 362.63,-224.16"/>
<polygon fill="#7f7f7f" stroke="#7f7f7f" points="582.19,-291.1 589.39,-289.31 582.65,-286.22 582.19,-291.1"/>
</g>
<!-- base&#45;&gt;onko -->
<g id="edge17" class="edge">
<title>base&#45;&gt;onko</title>
<path fill="none" stroke="#7f7f7f" d="M760.38,-274.33C803.1,-264.77 845.9,-254.53 849.5,-251.09 882.4,-219.73 888.74,-163.13 889.65,-133.02"/>
<polygon fill="#7f7f7f" stroke="#7f7f7f" points="759.91,-271.92 753.61,-275.83 760.97,-276.7 759.91,-271.92"/>
</g>
<!-- base&#45;&gt;patho -->
<g id="edge23" class="edge">
<title>base&#45;&gt;patho</title>
<path fill="none" stroke="#7f7f7f" d="M582.78,-283.43C549.94,-277.22 513.25,-267.21 482.5,-251.09 438.06,-227.8 444.5,-196.75 399.5,-174.56 295.85,-123.44 156.99,-113.98 87.29,-112.69"/>
<polygon fill="#7f7f7f" stroke="#7f7f7f" points="582.22,-285.82 589.55,-284.66 583.1,-281 582.22,-285.82"/>
</g>
<!-- base&#45;&gt;seltene -->
<g id="edge26" class="edge">
<title>base&#45;&gt;seltene</title>
<path fill="none" stroke="#7f7f7f" d="M636.29,-270.61C630.29,-264.99 624.91,-258.45 621.5,-251.09 607.2,-220.23 608.44,-205.97 621.5,-174.56 628.38,-158.02 642.09,-143.63 654.87,-132.93"/>
<polygon fill="#7f7f7f" stroke="#7f7f7f" points="634.39,-272.21 641.29,-274.92 637.59,-268.5 634.39,-272.21"/>
</g>
<!-- base&#45;&gt;mtb -->
<g id="edge32" class="edge">
<title>base&#45;&gt;mtb</title>
<path fill="none" stroke="#7f7f7f" d="M621.06,-271.24C613.62,-265.74 606.97,-259.08 602.5,-251.09 567.7,-188.86 569.6,-144.98 616.5,-91.28 663.25,-37.76 750.34,-24.84 801.06,-22.05"/>
<polygon fill="#7f7f7f" stroke="#7f7f7f" points="619.65,-273.24 626.82,-275.12 622.39,-269.18 619.65,-273.24"/>
</g>
<!-- mikrobio -->
<g id="node16" class="node">
<title>mikrobio</title>
<path fill="#e2e3e5" stroke="#999999" d="M1747,-223.84C1747,-223.84 1672,-223.84 1672,-223.84 1666,-223.84 1660,-217.84 1660,-211.84 1660,-211.84 1660,-194.56 1660,-194.56 1660,-188.56 1666,-182.56 1672,-182.56 1672,-182.56 1747,-182.56 1747,-182.56 1753,-182.56 1759,-188.56 1759,-194.56 1759,-194.56 1759,-211.84 1759,-211.84 1759,-217.84 1753,-223.84 1747,-223.84"/>
<text xml:space="preserve" text-anchor="middle" x="1709.5" y="-204.75" font-family="Helvetica,sans-Serif" font-size="11.00" fill="#4d4d4d">Mikrobiologie</text>
<text xml:space="preserve" text-anchor="middle" x="1709.5" y="-192.75" font-family="Helvetica,sans-Serif" font-size="11.00" fill="#4d4d4d">2025.0.1</text>
</g>
<!-- labor&#45;&gt;mikrobio -->
<g id="edge39" class="edge">
<title>labor&#45;&gt;mikrobio</title>
<path fill="none" stroke="#b3b3b3" stroke-width="0.8" stroke-dasharray="5,2" d="M1705.37,-265.68C1706.27,-252.27 1707.33,-236.48 1708.15,-224.27"/>
<polygon fill="#b3b3b3" stroke="#b3b3b3" stroke-width="0.8" points="1702.94,-265.31 1704.91,-272.46 1707.83,-265.64 1702.94,-265.31"/>
</g>
<!-- medikation&#45;&gt;bildgebung -->
<g id="edge13" class="edge">
<title>medikation&#45;&gt;bildgebung</title>
<path fill="none" stroke="#7f7f7f" d="M1063.06,-268.08C1046.37,-254.15 1025.97,-237.14 1010.43,-224.17"/>
<polygon fill="#7f7f7f" stroke="#7f7f7f" points="1061.38,-269.87 1068.32,-272.47 1064.52,-266.11 1061.38,-269.87"/>
</g>
<!-- medikation&#45;&gt;onko -->
<g id="edge19" class="edge">
<title>medikation&#45;&gt;onko</title>
<path fill="none" stroke="#7f7f7f" d="M1109.12,-266.3C1121.82,-240.2 1134.64,-200.96 1114.5,-174.56 1092.45,-145.66 990.7,-126.98 931.86,-118.4"/>
<polygon fill="#7f7f7f" stroke="#7f7f7f" points="1107.07,-264.92 1106.08,-272.27 1111.44,-267.15 1107.07,-264.92"/>
</g>
<!-- medikation&#45;&gt;seltene -->
<g id="edge28" class="edge">
<title>medikation&#45;&gt;seltene</title>
<path fill="none" stroke="#7f7f7f" d="M1091,-265.18C1087,-237.72 1076.58,-196.98 1049.5,-174.56 1037.36,-164.5 829.79,-133.79 732.76,-119.88"/>
<polygon fill="#7f7f7f" stroke="#7f7f7f" points="1088.57,-265.47 1091.9,-272.09 1093.43,-264.84 1088.57,-265.47"/>
</g>
<!-- medikation&#45;&gt;mtb -->
<g id="edge34" class="edge">
<title>medikation&#45;&gt;mtb</title>
<path fill="none" stroke="#7f7f7f" d="M1134.77,-268.03C1139.91,-263.06 1144.43,-257.41 1147.5,-251.09 1162.38,-220.5 1165.4,-203.48 1147.5,-174.56 1088.11,-78.62 948.42,-40.92 879.86,-27.81"/>
<polygon fill="#7f7f7f" stroke="#7f7f7f" points="1133.28,-266.07 1129.64,-272.53 1136.52,-269.75 1133.28,-266.07"/>
</g>
<!-- biobank&#45;&gt;molgen -->
<g id="edge10" class="edge">
<title>biobank&#45;&gt;molgen</title>
<path fill="none" stroke="#7f7f7f" d="M288.19,-291.01C404.22,-284.77 694.73,-267.7 735.5,-251.09 750.1,-245.14 763.82,-234.09 774.15,-224.2"/>
<polygon fill="#7f7f7f" stroke="#7f7f7f" points="288.18,-288.56 281.33,-291.38 288.45,-293.45 288.18,-288.56"/>
</g>
<!-- biobank&#45;&gt;onko -->
<g id="edge18" class="edge">
<title>biobank&#45;&gt;onko</title>
<path fill="none" stroke="#7f7f7f" d="M240.86,-264.87C242.88,-237.16 250.62,-196.24 277.5,-174.56 359.63,-108.3 645.67,-144.61 750.5,-132.56 783.07,-128.82 819.78,-123.58 847.3,-119.46"/>
<polygon fill="#7f7f7f" stroke="#7f7f7f" points="238.41,-264.72 240.47,-271.85 243.31,-265 238.41,-264.72"/>
</g>
<!-- biobank&#45;&gt;patho -->
<g id="edge24" class="edge">
<title>biobank&#45;&gt;patho</title>
<path fill="none" stroke="#7f7f7f" d="M193.58,-280.36C175.11,-273.65 154.53,-264.09 138.5,-251.09 97.57,-217.91 67.03,-162.58 52.64,-133.01"/>
<polygon fill="#7f7f7f" stroke="#7f7f7f" points="192.5,-282.58 199.92,-282.57 194.12,-277.96 192.5,-282.58"/>
</g>
<!-- biobank&#45;&gt;mtb -->
<g id="edge33" class="edge">
<title>biobank&#45;&gt;mtb</title>
<path fill="none" stroke="#7f7f7f" d="M229.33,-265.72C220.76,-239.44 213.45,-200.28 233.5,-174.56 304.73,-83.16 678.49,-37.92 801.33,-25.36"/>
<polygon fill="#7f7f7f" stroke="#7f7f7f" points="226.9,-266.19 231.5,-272 231.53,-264.58 226.9,-266.19"/>
</g>
<!-- studie&#45;&gt;onko -->
<g id="edge21" class="edge">
<title>studie&#45;&gt;onko</title>
<path fill="none" stroke="#7f7f7f" d="M1416.18,-266.08C1401.01,-238.1 1373.46,-195.83 1336.5,-174.56 1268,-135.15 1029.85,-119.57 931.99,-114.74"/>
<polygon fill="#7f7f7f" stroke="#7f7f7f" points="1413.98,-267.18 1419.42,-272.23 1418.32,-264.89 1413.98,-267.18"/>
</g>
<!-- studie&#45;&gt;seltene -->
<g id="edge30" class="edge">
<title>studie&#45;&gt;seltene</title>
<path fill="none" stroke="#7f7f7f" d="M1382.55,-273.42C1318.87,-246.98 1201.07,-200.77 1096.5,-174.56 1061.78,-165.86 834.82,-133.9 732.9,-119.74"/>
<polygon fill="#7f7f7f" stroke="#7f7f7f" points="1381.24,-275.53 1388.64,-275.96 1383.12,-271 1381.24,-275.53"/>
</g>
<!-- studie&#45;&gt;mtb -->
<g id="edge38" class="edge">
<title>studie&#45;&gt;mtb</title>
<path fill="none" stroke="#7f7f7f" d="M1429.94,-265.15C1428.79,-238.36 1422.83,-198.77 1399.5,-174.56 1325.94,-98.21 994.64,-43.93 879.83,-27.13"/>
<polygon fill="#7f7f7f" stroke="#7f7f7f" points="1427.48,-264.91 1430.12,-271.84 1432.38,-264.78 1427.48,-264.91"/>
</g>
<!-- icu&#45;&gt;seltene -->
<g id="edge29" class="edge">
<title>icu&#45;&gt;seltene</title>
<path fill="none" stroke="#7f7f7f" d="M680.08,-174.02C680.82,-160.69 681.7,-145.09 682.38,-132.99"/>
<polygon fill="#7f7f7f" stroke="#7f7f7f" points="677.64,-173.75 679.69,-180.87 682.53,-174.02 677.64,-173.75"/>
</g>
<!-- molgen&#45;&gt;onko -->
<g id="edge20" class="edge">
<title>molgen&#45;&gt;onko</title>
<path fill="none" stroke="#7f7f7f" d="M820.26,-176.65C835.32,-162.79 853.67,-145.9 867.7,-132.99"/>
<polygon fill="#7f7f7f" stroke="#7f7f7f" points="818.63,-174.82 815.14,-181.36 821.95,-178.42 818.63,-174.82"/>
</g>
<!-- molgen&#45;&gt;seltene -->
<g id="edge27" class="edge">
<title>molgen&#45;&gt;seltene</title>
<path fill="none" stroke="#7f7f7f" d="M761.49,-176.8C744.48,-162.87 723.71,-145.86 707.88,-132.89"/>
<polygon fill="#7f7f7f" stroke="#7f7f7f" points="759.9,-178.66 766.87,-181.2 763,-174.87 759.9,-178.66"/>
</g>
<!-- molgen&#45;&gt;mtb -->
<g id="edge35" class="edge">
<title>molgen&#45;&gt;mtb</title>
<path fill="none" stroke="#7f7f7f" d="M799.9,-174.35C809.65,-137.68 826.56,-74.07 835.16,-41.74"/>
<polygon fill="#7f7f7f" stroke="#7f7f7f" points="797.64,-173.33 798.21,-180.72 802.38,-174.59 797.64,-173.33"/>
</g>
<!-- onko&#45;&gt;mtb -->
<g id="edge36" class="edge">
<title>onko&#45;&gt;mtb</title>
<path fill="none" stroke="#7f7f7f" d="M874.66,-83.87C867.21,-70.3 858.35,-54.15 851.51,-41.71"/>
<polygon fill="#7f7f7f" stroke="#7f7f7f" points="872.38,-84.82 877.9,-89.78 876.68,-82.46 872.38,-84.82"/>
</g>
<!-- patho&#45;&gt;mtb -->
<g id="edge37" class="edge">
<title>patho&#45;&gt;mtb</title>
<path fill="none" stroke="#7f7f7f" d="M95.37,-99.17C109.33,-96.29 124.44,-93.42 138.5,-91.28 389.42,-53 694.16,-31.06 801.12,-24.09"/>
<polygon fill="#7f7f7f" stroke="#7f7f7f" points="95.14,-96.71 88.79,-100.55 96.15,-101.51 95.14,-96.71"/>
</g>
</g>
</svg>
